<mxfile host="65bd71144e">
    <diagram id="Ofe65eA97VNYYulx4Q_a" name="Page-1">
        <mxGraphModel dx="373" dy="570" grid="1" gridSize="10" guides="1" tooltips="1" connect="1" arrows="1" fold="1" page="1" pageScale="1" pageWidth="850" pageHeight="1100" math="0" shadow="0">
            <root>
                <mxCell id="0"/>
                <mxCell id="1" parent="0"/>
                <mxCell id="4" value="" style="edgeStyle=none;html=1;" parent="1" source="2" target="3" edge="1">
                    <mxGeometry relative="1" as="geometry"/>
                </mxCell>
                <mxCell id="2" value="DI Layer" style="rounded=0;whiteSpace=wrap;html=1;" parent="1" vertex="1">
                    <mxGeometry x="370" y="900" width="120" height="60" as="geometry"/>
                </mxCell>
                <mxCell id="6" value="" style="edgeStyle=none;html=1;" parent="1" source="3" target="5" edge="1">
                    <mxGeometry relative="1" as="geometry"/>
                </mxCell>
                <mxCell id="3" value="Playwright" style="whiteSpace=wrap;html=1;rounded=0;" parent="1" vertex="1">
                    <mxGeometry x="370" y="800" width="120" height="60" as="geometry"/>
                </mxCell>
                <mxCell id="5" value="NUnit" style="whiteSpace=wrap;html=1;rounded=0;" parent="1" vertex="1">
                    <mxGeometry x="370" y="690" width="120" height="60" as="geometry"/>
                </mxCell>
                <mxCell id="17" value="" style="edgeStyle=none;html=1;" parent="1" source="7" target="13" edge="1">
                    <mxGeometry relative="1" as="geometry"/>
                </mxCell>
                <mxCell id="7" value="Browser Context" style="whiteSpace=wrap;html=1;rounded=0;" parent="1" vertex="1">
                    <mxGeometry x="386.25" y="410" width="120" height="60" as="geometry"/>
                </mxCell>
                <mxCell id="14" value="" style="edgeStyle=none;html=1;" parent="1" source="9" target="7" edge="1">
                    <mxGeometry relative="1" as="geometry"/>
                </mxCell>
                <mxCell id="9" value="Browser&lt;br&gt;" style="aspect=fixed;html=1;points=[];align=center;image;fontSize=12;image=img/lib/azure2/general/Browser.svg;verticalAlign=middle;horizontal=1;labelPosition=center;verticalLabelPosition=middle;labelBackgroundColor=none;" parent="1" vertex="1">
                    <mxGeometry x="390" y="300" width="112.5" height="90" as="geometry"/>
                </mxCell>
                <mxCell id="11" value="" style="edgeStyle=none;html=1;" parent="1" source="10" target="9" edge="1">
                    <mxGeometry relative="1" as="geometry"/>
                </mxCell>
                <mxCell id="10" value="Playwright" style="whiteSpace=wrap;html=1;rounded=0;" parent="1" vertex="1">
                    <mxGeometry x="382.5" y="210" width="120" height="60" as="geometry"/>
                </mxCell>
                <mxCell id="13" value="" style="aspect=fixed;perimeter=ellipsePerimeter;html=1;align=center;shadow=0;dashed=0;spacingTop=3;image;image=img/lib/active_directory/home_page.svg;labelBackgroundColor=none;" parent="1" vertex="1">
                    <mxGeometry x="397.5" y="490" width="105" height="94.5" as="geometry"/>
                </mxCell>
                <mxCell id="15" value="" style="shape=image;verticalLabelPosition=bottom;labelBackgroundColor=default;verticalAlign=top;aspect=fixed;imageAspect=0;image=data:image/png,iVBORw0KGgoAAAANSUhEUgAAAUQAAABaCAYAAADAQS+ZAAAgAElEQVR4AdS9h39VVb73//xFv2fuzH2eUUg9aZRQbFhoCdWxzqjjOOqoM0AKdgFBBEJLSEIVECuCAgqEmkAC6e303vt5/57vWmcnJ3Qd5965vvy+9sk+hXP2Xvu9Pt+yvvt/ZRIhfp6FySTEIqQTIVKJIKlEgHQiqD5H9un9IZLJMMlkJLsNkUqOv45ECOJeiDkg4SSTcJNO+iAd0JYKkEmGSMUjxKMRwqEwwUAYny+I2+XF6XBhtzux2h1Y7XZlNocdh9OB2+vBH/QTCgeJRELEY2HSiTAkg5AMaIv7IO6HeBBiQdJx/V3TiQjEDQtDXL6nWBDigexWHoeQ3/Dzjt3/hNcHISEWUFv9+4Jk5Nwl/aTiXtLq2OUci5g+hsaxysTD6ngmYiEi0QDhaIBIVJ+LSFT2hYjEwmMWjYWJxkJEY0FisQDxeJBEIqjG0fixN77X+DhT4zAeJhMTi5COR7Mmj/V3+J96ftLxUPY3yG+KZMdZgIycm7iMSxmj4+MzI69X41HGcoB03E86Lo9DpOX4jI1pY2xHSMdCJKJ+df0m416ScTfJpItUykUy5SSZ1pZKO0mnXJByT7BM0kU64YSUR5n6O+6EpJdMzEM65oGkP3vN6fMm50NYISxIJoMkk8KJHEuESMT0d1fnLims+TnXjfw7YnKs5H2aVXp798/5Xz/vHzM+0ICi/D3+jwt0tAkoxcI5JgNcgChfVF9s6mClfGRSfpKpCLFUkkgaQmnwJsAehiEPdFngwkCKU10Jjl4KcuhHB3uOj9J8dJBdR/tp+raPpm97aT7az94fRjjS5uLYlTCne5NcHoVuF4z4wRmFYApiGYgmIZFIQSqpB0wyQialB56GdS4IZRBOtF923Izj9++7HYehX0FRDyyZnOSc+RQM5YJLxUPEE2GiqSiBRBhfIoInGcWRimFOJxhIJbgej3I5EuRCKMD5YIDzAW3nAgHOBXPNz/mgn4shP5fDAa7Gw3QlovQlY4yk4tgzCdzpOL50jEA6TiidIJJKEE/GScVjZJRFIT7RZNKWC0HG5P+k86VBloWZArvA0bjOZGIQEMpvlYkgSCYmANSvl9+pgTi+TyYHmaQ0QMPq/fI6gWEk5CGVChGP+4jHvApSiWSIRDJMIhkhkYiSSMRIxOMkYgni0aS2SIp4NE0iirJkLEMiliYRS5JOpoiFw0TDMpHGyKSi+tqSaywZIm1MrjLBKguQSoqw0lDXYL+3a0Rdq0pcZX9fdlLQXJLPkDGgx8G9jIFfCET9ZccvHjlZMvCiiMLSIDRmLFFmMiA1EDUM9cUmii2dCpLMxAmlMriiMOiD8yNw5HKMbcdcfHBgmH/s7OPPn3bz7Loenvywh0XvXmN+fSdz6y7zRN1Fnqi7wNy6i8ytvaRsfn07Sz+4znMb+vjLtmFq99lZ/5WL1tMBvu+Bax6wxiCYhlQG0sk46WQEkiFIi/KTiz9rShXmqCE18IKkstt7Ocj/bq8ZG0QykG60MSXsg4SfdMJPJiFKWhS1T6vsVJRkKk4wk8BJkqFMnGvxMBcjAU6GA3wZ9LMv4GeXz0uD281Gp4tPHE422J2st2n72ObEsPU2B+vtdj5x2vjU5eBTh52tbjetPh9HwiGORyOciUVoj0XojscYTaVxpyEs5y4DpNIQj0EsrC0HjDIejYn63+083O77CNxSsYAyeY0CXFZI6PdEyMSjCnIT4aeFioajBqK8Xq4/gei4StLXYjIhajyAAFAECZkE8l8yCZEo+P0pHPYoVnOEvl4fnVc9XOnwcPmSi4sXXFy+6KOzI8K1zjgDfWksZnC7IB6HaBxicUilIJ3KkE4nSadipFMCRD9pUZFiCQ+ZhGxlnN0bBI3XjQsXgaEoX5kkIjmem/zmaNa02DHee7vtPw/ErHLSQIyRSkSzQJSDLrOZnBC58HJnOL1fZp9ALMqAw8upq6PsO9HLxiN9rGzu44XNAyxf18fCD/uZ8/Ygs+stVNZ6mFrro2yVH9PKAKaVXopXOjGtdFKy0k3pSg+lKzxqW1HjY3q9h5nvuHjkfRsL1gzxh0/6eGV7P29/Zmbb9y6OdvjoNofwBGLEEwlIRSEVJpOUmc0AgZ9MTGAggNS/Q2CYlEGrZu2fdxJvdyL+K/ePDyRDBeduRQlnASiKMKktk9CAlFk8HI/gikbpjYRoC/k4FvRy2OOkxWljs9POBy4nq9xu3nS5ecXh5iW7mxftHmUv2D3cbG5esDt5wWHnJYeDl+xOXrG7+bvDzdtuDx97PGxze9jr9vCVx8+PvghXgkmGoxm8cvEm0sTjceVi6gsiDgmxmJqg/8cCMa69KeX+KmAYbqBc3LGsSy3gM9RgFnrK3ZbrTUwD0Rhf4+5qQEEwmUkQS8YJhCJYrS46Ogb44ss29uz9ke3bj/HxuiO8/95BVq7cy9/e2MOrr+3h5b+08uJLrfzl5f288fqXylat/JZ33/2ejzecYGdzG/sPX+C777u4fMWM3RkhFE4STyRJCRSTIXV9iWtNwg0Jj5p8jTCUjE/j+95pa4Ro9FaAGBtXzuoz5Dj9FwJRf1lj5pGZ2JiNRf5m1UVS3C0BjByEMIlEgkAkzagrwcXBKF+2B2g4bmdlSw/Pf3KFqvev8GBdJ1NX9lCxsp+KmmFKV1koqXFhqg1SXBumqCZCUU2UopoQhTV+imv9mGoCmGqCE6ykxkfJKhclKy2UrhikfEU301d28sjb11i6vp+/NQ6z4QsHB8+GONuXpt8FrghEU5BUJ05m1iwgRCUp0wPwf7xCHIuN5sJQHosaFviJGpS4YZB4OoI/FcGeDNMXD3M+HORYIMB+n08pufVuN+87nNTbHPzd5uCvNgcv2lz8yebiOauLZ6wunra6ecrmucmeVvvcPG118rTVzjNWB89YnDxncfGCxckrVidvWJ2stDpZbXPykc3Np3Yfu9wRPvfH+CGS5GIsSU8igSUZw5dKqNBLJplQQERiwuJi3uNFdqcL8L/qOYntKTdXfWcRFjI5azhqyMk1p+OkKRX/1q/XsUZ5TmLlcs1pUTLupgZIpyJK3YcjMRzuGH2DIdouOvjq2152NJ6l/u0jPPenrSx9cjMLqjfw8KMfMPPB95hS+Q6mqe9QXP4OhaXvUGB6m6LS9ymbspbSijVMnf4xMx/4hIce3cgT1VtY9nwTL795iPoPf2BH61W+/m6Ii5ecDA2F8Xq0663OUUrOjVxbIjaMc6UV7d3Omb42De9Nxm6u2yxQlWNhAFEe3x20/5RClJk3pVxk7SrrWI1WgumEj5Soi7SfVMpPOhUmGQ/j9sfpGonz+Vk37+4bZPm6Th595zqVNT2UrxyhtNaJqd5HQX2I/LoQecoiTKqLMakuweS6JHlitQkm10SZXBMmP2sFNRFyrbAmTKGCZpCC2gD5tX4Kar0U1bgx1diZumqYB1b1suj9Xv6xy0LTyTBtQ2ANQjiWIJUUzS8nScfPSMiM5iMzFrDWM/C9HOh/p9eowXdPQJSgd5hgOs5QMsr5aIgvgz62uZy873CwwuHiVZePP3sCvOgJ8idvkOc9Qf7g8LLcnjWbl+U2L0ttXpbYfCyxT7SlDj9L7V6W2Twst7m1WT08afXyB6uXp21enh0zD3+0ennJ7OV1e5BaZ4APXT62+QIcCYVpi0ncMY4rqeOLJGNjMLzbxfXvc37CpGJy4UYhKSaPDRgaW32xCzRTkjCMiQstaki7haIoSQUglRUmsk1KnN6r4oL+UJTeQTffnRhgY0Mbr775OQsWb2ParDUUlLzDfQWrub/wAyYVf8Sk4rVMLtlAXtmnTC7fwuSyBgqm7KCgYicF5TsoKNtOfuk28kwNTC7ewv1Fn/K7/LX8X9N6JlVsJH/ap5TO2siCJY38fcVXNDd3cOa0jeGhMKFACj1xhSEVg1Q8+5slfKVDbTrcNhFkY8+JAlaTtxHvlr9zr0k9cfyXxRAFhslEVJmoQz2o5ESIsvCRlBNBHIlM+GJwfSTIwZND1O+8xHMfneeJ1R3MqBuitMZO4Sov+TUR8uuT5NVnmFQP99enub8+xX31KX5fJ5bmvvo0k+rEUgqQk2pjTFYWJa8mSv4tLK82xqTaOPfVJpTdXxtH3iewLF3lY+pKK7NX9bDw3U5e33qNnd+NcqE/hFPOSQaScVEbMmtpt1EA+e9zAU0cLPfyvW4PRD0zi7JIJAP4k2HMsTDtAT/fejzscrlY53SywmbnJbuDZxxulrkCLHKHJli1M8AiZ4DFjgBLbH5li+1+Ft1gsk9eI1sBpUBTgdPqY7FFzKtskdVLldXLAquHKnnO6me5LcCzVg8vmO28YbHxvtXONoeDIx4PF8MRRhNJ/JkUyUySTCo2Bot7OT7/va/R2XEFOlE8KhERgVSCTCJJMqqz6SpEFZdMcTaeOJY4ECCId+ZTXppUgGTSMSBNJBqjb8DOgcOn+XtNEwsXr2H6rPcoqfiA4oq1FJZtYLJpHb8v+Ij/k/8Bvy9aQ375J5TP3s6sJ/bw0MLPeLjqEI8t/pzHFx/h8erDzJl3gIce20Pl7F1UTNtOccVW8su3cF/JJn5fson7yrfw+5JPmGz6iLIpH/LQI+tYsmQjb799hK++7GR0KCA/Ub4eSLwxOh4HVOP0FllmBUQRKpKsSWpTYkxCcxLyUqECA4zyt2F3v1b+SYUoCRSJGYosNYKZIstlNvITTSdVtviqJc6BMy7e2TfE8+u7mLe6kwdr+pi2apTSGjeFNQHya0Lk1UYpqEtSUJeisDZDQW2K/LoEeXUJJtUmuF+2dUmlEkUpymNRjZPq4gqKuUAsyAGjfK5A834FxiiTaiPk1YqaDFO4KkRJjZ/SFTamrBzm4foelq/tpmb3KLt/CnF5BBwhiAnV5cwpaS/yXuBx9wP833tx3fr73RqI2t1IJKP4UlFGEmEuhAN84fXQ6PKwzuGixu7iNbu4wk7+YHOxzO5lsdOPAUAFwSwIFQztGohLDSja/Cy2+ZQptWjzsVRgKFurl6VWj9ousfpZbPGzyOJTVm3RQBQoVlu9CCCXWDwst7h4atTO86M2Xh618obZxrsWOw1OD4f9IdqiCQbTGTyZjMpKaw/m1sfk3+s8ZS9gdbHHiEfjDPXbOX3yGt99fRqXzU0qKrCUDLsIEXm9/C6BgJSV+XUMXGV0o4SDMa5eMbNvbxuravaz9MmNPDjnIyqmvU9xyYfkF31IYelaSqdvZOYjDVQt381zL3/OGzUneG99Oxu2XWfnvmF2H7Gw90sLB762cPBrK4e+sHDws2H27xmkaWc3DZs7Wb/+CivrzvDsS1/yWFUT5bM3kFf+AfcXfUBe0TpMZespKV/Lo49t409/3MP773zNl4c6GewJq1AgScntCPz1ebpRIepse4iklHMFQvi9MSKhNKlEmkw6rrLZugRQREsuFO/tvP8qQJTssoaFJEv8ZNJ+Igkvw24/pzqdbPpqiBc29/Lg28OUrbSoZIipJkGRAK8mRV6tdoHz6mIU1iYorklSuipFSU2C4toYRbVR8rNQy6uLK0CK2yxAvL8+yaT6BJNr42MKUWBomChGDcQIk2vFwuTVijse1p9ZEydfvkdtkvyaOIUr/ZSssPPgO3ae32Jn3Zd+vruaYsgpISmR9IYbdm9xDuPE/jttbwdEKc3wxSP0hIOc8vtocXt41+7iTZePFx0+/uDws0zUn8NPlVObwFBMAVAUYY4ttQcQGBqmIGgV+GlbZvWxTJ4fg6EBxACLLUEWWQJUW/xUW30sErPJ1ku1xU21xcUii5PFFoeyRRYHi6xOnjI7eNnspMbuZZs7xLfBOFdjKRzJBMkxcNzbxfHfc87kIpYYoNTjhXC7XFw438nObV9Rt7KV91Y3MdLvIilKKhnPwlCDUBJfGanlVe5ygEjQw8jgIN8fO8+aDz/nqSd3MmPGWgqKPiC/aAMlpQ1UVrbw6KMHWf70d7zyVhtvr73Cjt2DHDlq5dT5IO09aa4PZRhygNWXwe5P4Qom8YTi+H1Jgs4EAWsS53AcS3+c/utJzp8L8fkRC5sa2llRf4xnXzrMvEUHmfHwYUqm7mVyYRMFxc2Ul2/lodmbeOG53Wz99DRtP47gtMZIRJO6BEcU320Uonm4n59OnefgZz9y/PhVrl8bweNxq4SuxL3VsVCenAHFezvndwWiUWitB4cxE8mH639IZl0xJWNV7VJclUP0uuMcOGvj9YaLzK07w/S/X8G0wkJJXZDiujhFdRkK6zLk16bJr9NKML8uPgbEkpoUAk0NxBgFtTHE9RXFqFWjKEVRhxJXFCBmn78BhgYQBYraIuTXiRKNkK/eI+9Nki/fpR4K6hKY6iOU1nqYXjPEY6u7+eu2Yfa3xbnuBJ+UEyi1mI13yEyWjVsYx8I4Zjdu/3susPGBYNR3aZUrySIdiJbQRygVx5aI0x6JcMTtZrPVzmqzjVetTl5w+nja4UPifUsEfuImiynXWNxeP0skFpg1eazMUH+iACV+KKbgJ2pQ27IJ6tAA4kSFqGCooCjq0KNgWGV2Um1xKigKGKusLhZaXSw2O3hyxM4fh+28NWJnjdlFq8vPmWic4XQSdzpBWMqGkjJu9TjW5WMymf+8i+efO5/GtST/Zu6/GyalYoNR7LYgP5y4zlv/2MmcOauYPWs1r/5lOyODIVIxCQNI7F7eK2pIVKEAMUwmlSQUjNJ51Uxj43GefnotlZU1FBW9jankQ0wlH1FesZ6HH9nGM88c4b33Ovj8ixAdXWCVMR6BcAIiKYhIFj+lE42xFMRTaVKkSWWSkE4jik7FxOKAYfL6KLg90D8EP5zysL2xl7dWnKZq0QFmzNpJWflWik3rKSr8gKLCeh584ENeffUABw/1MDKaIShOWEJKdpLZsimdJCIdgXSMkz/8wN/fWssDD77Gsic/5qO1X/H9iQEcrjTRaFotCJFSuonXoCSZxmsdb/X4jkCc+IasjFezrD4JaiBJJiuWrSFKhlWssN2S4dNvRnh2Qweza64wpWZQxQklG1xUG6GwVgAnrnHW6mWboKBWgBinKKsSi5WKFCUZp6A2Qb5YFojGVivGOAJTAZyA80aT/fm18ry2guxr9d9JrQ7rUuRlwVwgSrUujKnWT3mtm1mrzSz/ZIQPvgpwegQ8SV36JvWLUrAtZTlpKY6VY5OKklIrdMar742C03/uAhoHW+7naLjJ6Lmzqay4vEYGlCgQpUKkxChCOBVnIB7jZCDILruTD+0u3rC7ednm5nm7h6ftXp6UGJ/Dp0AnABRXWYNQ75fnDJN44GK7JFG8LLF6foHJ+7wsFvfY4lG22OpBbJHFzSKlDkUhuqgWMGZNILnI7GTJqIPlow6eHbHz0oidN4etbLA6ORII0ZlJq9rJuGRbBSaqxChbF6uSZ7lwuvUxzz3+v+xx9lpS5TFG2YwRl46SjMWwWVwcOnSBPzy9iYrpqyksrmfGrAZef/1zRoZ04XMiEiAZk3o+qQjwQzoImRQ+X5xvj7bzj5V7ePDh9ymf8gFFpo8oKP6E0rL1zJnTwN9e/5ZdzUNcagerHSLCGRnXAr0kxJJ6K2sXEikBTIJUQpfVKdAo5SZjSWJ+Uu4i10KCTDxNOqHEq9odjUAwAB43DA3Cj6cCfLzuAs8++xmzZm8kX4BYsp4C0zpKp33K3KodfPTxGc5dChIMq7JIBTcp3JYFHFLHmExE+PqbY7zw0jryit6gZMqHTJu9hief203Dzov0D0WJxlOkM2nlFUiZjzJVC31nKN4ViHrFiVBVTqIRrzCAaNSrSRYritvn46cuJx8d7OfJddeZWdtHca1HwUogpC2GAEebsU+DUEBpAFGgaJi40WICxZtMfa7xebfbaqDq9yYVjBVc1ecZQMxmr1WMUscqdfIG9f3L6908sd7Fqs88HLuWxOZPI4NFZQJlBY4UaotalgvtBiDK0iQ5jr/s4rn9+27t+t5YRqNBqb+flD7pQl9RFVKQG4wHGQj7Oe71ss3hpt7m4mXJEruDLHcFWO70s8zhm2AajBqAt3xOYosKiAIxN0uyJo8XW3LsVvtzXy/wM7uULba4su+VrbYbgZgLRoHjQotLKcdlZievjDp41+pmr9tHRzSMNxkmlpIEhozhrBnF+BMU2+2P/y87n4awkORItuhaVS0YQEwQDsT45qszvPraLioq15Jv+pTJRVuoqNzPH1/8kuvXE0RCusxNuccZWe4aJBn1YTG7aNn9PS+90sADc9ZQXP4JhaU7KCrbwYNzDvPKq+doaXZw9nSKnh4YHIERc4yIwEclNmSRgixjldUjkg8QEMkEmrNYIefxzRlw+R3jppfLSngpQSqaJODJMNCb5Ph3LtZv6OTp579h6qwmJpds4z5TE0VTt/Pw3Eb+XnucL74dwOlJkkglSaWjpFNSuSIJvxhXuwZYu+EHKh/corPcJQ2UVe5i/pJdrPnkGBc6hgiEkqSSUhAeUb9JXGn5TcaqGINtudtbAtFQhvqFYaV4jGV48pxWGEb9jxywNFZvmuMdHt7d08vi9zqYuaqf8pU2VTeolWDiFkDMAiyr6gwg3ghFA4i5Ww03AZ1A9XYgNPbfDESlUEWlZi2/TtxmgaJO4uitqEZx6RMUrPJhqrXz6AeD/GOPgyPtafo82p0QWS9upw746tqvsQOfhaEct192Ad3+ffcMROUaZ5ceZr+HQNuRDHMl4uNrr5PNdjsrrQ5etjp5zuFV2eNluTC0+1QSRUpkbjRJrhgmzy0xzCbq8EYgjgNNwVFBMnefS0HUgKcBRIGfAULZKpVonqgQbwSiQLHK4mSJ2cnTw3ZeGrJRP2Sm1eWiLRpkJBkjlJ3ktcI2Lvp/pUrUy+hEXIwDUSZUiZdF1fzac83NO2/v56FHPiDftI78kp3kmRoxTdlH9dIDnDjlw+uVJIJATDLICcLBKNc6R2lt/Yknn97I1BnvUFCymuLytVQ+sI3lTx/m3Q87+PqbBJ1XoOMi/PCDl8NfdNN23oLLJe63LIUU8RNUy+uk2kAD7ZcBUUFUPkMxQ9b4iYrU4A35oft6hkOfm3lr5XHmVbdQNr2BPNPH5JnWMPPhrfz1b19w+IsBRs3iBov4FShGSCVj+P0hjp8Y4cW/fkHJtI3kl2wkz7SVovK1PL7gE9Z98gMXLjoJCa7iGVLJhFKJ49elXipocE2xLhnkJiDeCEOtdmTGENP+95jLpTKtUcIROHbJz8pd/Ty66hIzVg5TURumVFxPSVQo6NwBiAK0MSgabrO4ztoEkLezXwuIAkaVWFEuedYFl8cqvihJH8lkRympc1FZO8jLTT72XcgwKhloKeROxLMrWnzZsgcpfdDNLP4VMBS4/mwgxrKrbVIxYskYXbEgB7w21jktvGm38bTNyVKrk+VOH0vFRBkqEEo2WJfEGKUx97JdclcgToRcLvDu9lhAaQDwxm3VqIMbbdGok8UjTp7tH+XNgSEanA5+DIWwx+KkJFillm5mG3/8SxWiqEKjkFq2sgZZAKxLawQU+/ZcYumyLRSa3iXftJX8kt3kmXaTX7KX2Y/somF7F30DCeXeZlIptXb4WqeNzZu+Y+68DzGVvUthyUZMFRuYPnsjz794mN37R7jWA2Yz/HA8xJr3TvPCH7fz0stb+e74AA5nTHl58ajEIXNAaDzOUYW5ajFXDd74OPd1xlhNixQVn1xijxnlZXOlM8KGjedYsnw3JRUfU1zRQH7JNqZUbubJp/Zy6NAIoyPyO9PKr1dJ3EyaUUuaXXt6eOCxTyks+5iCkp2YyrdRaFrDE/O2snbdj/T2JpXLnhBXXsRJVvmq7YR+C/q5OwNRQVDDUOJiQlF9IeqAfDqeIhBIc+ysmRXbOnl8dRfTVw5TvipAUU2GolVpCmuSCoja5b0HNafcZsks39m0msyC9FdQiIZSnKA8VexS4ChlP0nur0tTUB/DVCfLAq28uHWE/W1BLGEIq3IBKSjV4QS9NtNwg26v8v4Z1WgMsolLmG7hMov6UB1pJJYSJZiM0xf084XHyRqHmdfsZp6126mye1ho97DIcHmzalCg+D8ZiAtHHCwYdTFv1M3iYRvPDY3y5sgojXYn7ZE4nnSGmKzjTUkdm/aA/pnzcuf3ipt+IxBFHcZkVsVuTVFTc5gHHvqE/OKPKSprpqBkH4Wl+9W2ZMpWlv6hlcNfjuD2QiYDvb0u1q79gnnz12AqXU1xmQCikcfm72f1B1c43wFmO7RfibBp808sW/Ips2e8w+JF69m85QwOqaBQcfGwWmcsY3dM3f1qQMzGrWWprxJSEn6Lk0qmicVgeBgOHx7lz3/5gsrZ2ygq205RySamTNnM0iUt7Nt7DZslqoKKaakLTsYJh6GrJ82rbx5m5oObKCzZRmnFLkrKtlFWvpmq6kY2fHJGfbbEMmXsq+5chus8AYjanb4zENUbtCpUIMxxvWQtpcWd4ejFIH/f2sWCd7qYsmqUklUeTGpZnYZhwao4BTXatdXJDUlwaLulq/tvAUSJWYoqlZimdrulrOd+canrBephimrdPPzuMH/ePspnl2BA4trSLCLbKEIHcQWERszo14fivQNRYjjissTwJOJ0hEJ87naz3m7jDbuN5/5fC7XldjfVdp+yCUCUYmnDTc4WTo+rQw9KBYoSvJWphIp2mQ0X+G7KL/d5wy0ec5uz8cQxdTjqoPoWNq4OnVSNOqkacbJwxMXCUTeLRhwsG7by7LCZmmGzguLZmO7QI0sUU1kv6M5Q+yXnMicGL91n1LgwFKKs1EgQDYe5csXF089up2zqevIKN1BY0kRhyW6KSvYqKy7bzvTZW3j1rePsP2Tl4uU4a9Z+x6LFm6iY8iHFZVphzVnwJStWX+XbExn6R+DkT0nWrjvDggUbmTrlXaZN/YjX/nqA8+f8yh1NS+MnSVqohguyIis30WSEEm7e3qgKb/rbaI6iEgJjpi4AACAASURBVHkyWU8Eo8pLJNNIWaVlNMnJk05q677nsbk7KSn9mNKSLUyt2MSfnt/P7uYOrKPZzHYqrppQeP2w/+B1lj/dgqlsE6aybZjKdlJk2saUaZtYsqyFPXv7Mcv75PqUUIUSd+Iyi2mhp+KKSf+dXWYVSzCksvyQmKE+wgR8AU5cCbKieZQ5q3upqLGQrwqeJfGRpLAmRWGNxN5iFNRoJWeA0Nj+ewJRFK1O4mggRhQApZBbLR+sTzCpPs6kuiimWjcz37bylyYvX17J4AhmSMhBl1IBlfKXWdAwuQh+yYV0+/f8HCBmknHisTjdoQiHPT4+tDt5zergKYebaqdXrSJZbNerRhYbWeIJbvLtoDceI8yNF974WCdTfp6LfLukiXKRb+EWj4PQcJkFiC6qRlxUZ00AuWDUwcJRG88OjfLG8Ajb3C7ORUM60ZINDf3a52riONBlavJv6GRXWOpL8Hp9HP++n7kLN1JQ+imTCzdRaGqkyNRCcUkrxSV7KCrdRWHZVmY/uoc/vnyc1e9d5In5W6mY+gnFpVsxVeygaMo2Hlt0hL/VnGVbSx8t+weoWX2KhVVNFBe/h6lkHQ8/3MSaj9pwSTtS6Wmi1Jr0NdQdaHR3IyPhJPmCm2EoKvImAN6wT4UDVAMYgx3Z3gCy5G7Csjspg4oRCsDp03befuc4C+Y3U17ShKlgJzOmbuHPfzrM55/14nej2oqJyy2deXr6wtSv/o7ZD26l0PQpxaVNFJXuptC0jbKpDbz08lecPGknEtJpdOm6I96uVBnoPImRbPHdDER1krK1OnpQ5BBdflgyodr6tPe4WHtggDk17UyvtVJa68tmgFMUiJtcIwkLKXOJZuv+jATHbbZjMUStym7nMhuqTSm37HtuCdYJbvTdkyq5LrMBRCM+mV+naxxFJRq1jwLHglppJuGmcmUvK/fY+eF6Em+2ZkvkuSxn/FeuaLkrEBWApa9dDG8ySX84xreeAJ/Y3bxuc/G81clSm4dquwBRSmUMy2aJc4B4YzzwRuDd7e+fA0SlDCVxcoc4oSjDmwGYs2/EQdWIg+oRpzJRiUopjrpYIFAcsbN0yMKz/y/NKjHF3W43V2IRHBldp/jrAzFHIUr8VxUdy2SnqxMkQ2K3u/js4GUefvRjCkybyStuoMC0kwLJvpY0U1TaSmHpLvJM2ykQJTS1gfLpn1JQsgZT2RblLpoqGimq2E75zEamPdTAtAfXMuPhdVRUygqRjRSXbqSkfDMLqg6xffs1ohJNCcmSQPlOHshIQ1e9Zn8cigYQsywwyrZUrFVCRNq0gNJJRf1Ye5dSfTE+VgWIAldRoLkqVD5DXq/mBi5d9PLh+6d5+IHtTClroMy0gdkzG3jpT/toO+0m6NMlOVIKGY3BvgNX+cMzreQXv4+pfDum8n1q8sgvbqBi2gY+2dDGQI+UJQlMZWVLMAeIEj8UKN5CIeqBoFdhjA8KORAScA6qQO6QM83Wz6+x/L3zVLzVi2mVn+JVYYpWJZQqLMrGDUUJyjK5yXUR8lQx9L3BUGA3DsSoWqli/G0A0UjC3B2G8m/+PCAacUSJHapGEkZDibGt7JfPlKRRBNM/rDz+Th+rD7g5bwZfQg66tJ/K1vypAaBP+Pgxvb3yu9fXjA+y7OyrEi0StNZ/i1smgzGcSXI9KjAMstnu5e82XVu4XLm0XhbbxDwstrtZbJetmM4WG+7xLwGi4SYLLO8ViNpN1vWENyZLqsX9vRsIRf2N2JVVDdupGnYokzji/BEBobaFww6qh+0sHrKpRMvqESv7PD6upHTx9r2eg3t/3UQgGhAZB2IGs8VBc8tZZj+0lqKSrapcRhIF+aZGCkQZlrZQWNpMfkkT+aWN5JfuIL9Uki4NFJZux1TWhKm8keLyHRRP2UZhxRbyyzZSUL5JAbSgtImC0h0UljUwt+oztm2/olzVRDhCKiJqUBSixH6y3Y5k7b5ScQIwYUA2kaf6K2qY698xDj5VepYdd+MZ3Ozijez7c3+7cfyUcJDPTUksV7c1vNoeZu2H53jogU8pNa3DVLSZmZWf8NYbX3K+za/qHDOyVp0MHZ0u3v3oO0qm1FMkMdQSmTzkeO0iv2g9zzy9h8P7ulVDHNVDIu4nKY2Ox5pYayjeFEOUi0i30dHqRr6wMZsJEN3BNId/svLapnYeXiWrT1wU1aURCBavSigrqtEupyzFm1Qf5v76MJPrRCneHogG6CbCUC/bk6V7uc8rGMqqlrHaxvF6xlsD8ucCUX+ewHByXZrJdRnyatMUKBPlqzPmkoFW+1eFqVhlZfEGF5uOxRiSSTaRVAvPx9tp/foJlrEBmgWg/nsciDI440lp2xXne3+QzQ4/K2xenrP5WOgIUi0rSdQyOnGH3SyxO1lsd7HE7tGlM9mY4fhqkvEVJsZKEymgvl3xtUBQVJ4BxjHlly2byY0XyuOx53OKrSdA8ecAUcHQrqAnYFww4mCeQHHYwQIFSQGji/lmD4uGnbw4aOUdi4sj/pBa0SJJxF+3OiAXiDI55ribAoJMBovVxZ59F3nwkfU6Dla2k/ySHRSW76KgzLBmCgSKpS3klbYwuaSFvJJmBUoBYnHZTorLpO5QVGSTek1e2R7yyvaTV/oZeaWtTDI1MGtOEx+t+xG3M01KNVQQ5SbK0Du+Vc1MZCmghqHh9ktG3oiBaqBp4El8LtekgFrfQkQ3jZbX5laxaHhmQ0qS5VcNG2QrxyOuVODFc35WrfiWR+fsxGTaSVlZA488vJUNG9rp7AyQSsdJpUM4PDH2HW7n8YXrKC7/WMGwuHwPxRX7KCjeyoMPNPBe/SkGe3VTHYnxq56mY0DUscRbADE7Cyh3S06aLAkKkkknCIYinO8JU7PjGlVvX2f6ykGKa/wU1qd1JnlVnCIxtcJEZ5Qn10cRuzeFqCGn6xANlSgwnAhEBccsEAvHIJt97y0hKc8lKKxL3pOpVTOq/EZqE6UOUZs0nRhbXSO1ierzUmp5oSSTZr7t4oUGG990gcWvb1OgJhjVNiy7mudXjiMas+0YHGUCywayo8kQjkRItebf5XSzyublz1YvT9m8KnkiylBgJk0Vxl1eD0stPpZaAiy3BHnSEmLZSIBlQ36WDYoFWDYYZPlgkKWDAZYM+lg65GPZiJ/lo36WmX0sMevmCwJEAZoAUWAnS+1kDbI22Zdrer96nQHEUSeiCrXpBErVqH1cJWbdYnGNJ1quQhSVaGfBsD0LRDsLhuwsHJJ9WjWKinyy38xLgxbWm220xWO40nHC6bha6SCKW92zJLuVx2N2j+dzXDkJFKQcy+hGLv1CdQzR5fTw5VddzHliA8XlWylUUBMXuJXC8hYKym6w0hYFR1GPEls0lTZRXLqTIrEyUYKNFJY3U1DeQn5ZK3llu8krbWaSaRul03fwymtfcfonJ+GAbpYtkFb3QREwilpUWwGiZN9FIEl3HYl/6mYu4y3HjD6oGozGbxX1ZZTtSaxuHIYCH8M0RCXRoY6DwFD+vbR0sYGAD058b+Zvr3/J7Nk7KCndQFHJWpY+dYidLZ3Y3BmCMb3c8MRZJy+/fojSaRspLG3FNGUvJVMlQ78DU+l6nnvuMEe/dagi9HRKVt4YS/vEzdff75ZA1BeZwFBq6jyqdieeytA34mPLoT6qai8x/R8Wyld51VI8WTaXJ00SVsVV3aHUDxarkpUYohLFbqsODaCpbK6scTbqEG8GouEmT1CLyhWXtcnaNS6sF/DlKkYDhgmK6pJ3NQOa4+ATCOaaXm4or5PPK66T9dYJTLUxTLURHnnHTM1eFz/2g0faKapmELojsOFeGG7CP7vNjdkYnz2mSOM+fIkA1yM+PrObec9i4482H0/Z/SxXPQmzqtDqUjBcPOpi8YiLxcMeFg16WTTgZ8lAgKUDAaquuVl4xUnVZRdVl91UXfZS3e5jQbubuZftLLjqoLrbzZI+L4sHPFQNuKgedrNo1KVgtsiqYbjQ4mChrDs2u6gyCyxzTfbJc9mleDe5xgJCGxqIWSiOOFg4bJ9oI8ZzGoQCw4VDNgXE+SOiFAWENhYM2Zg/ZGPeoJX5g1YWDpip7h/ltd4B9nm9XE8n8JAmIWEPAWBM1g9nb9ikbmolBdb3HvYwLjh1zsZuAiU3U5KJMogEz8IBP2fOjLBg0SYKyzeRV9JAUUUzheUCxFYKy1onQFHcZwGhJBG0NVJUIkBspKhspwaiQLFM3OtGJpc2klcqqlFc7p08NreJ9947QW9vmpAqDwyTiHm1yyxAlJtEqb/l+2kgJiKSR5B11NKx22i+mgVkNnN+oxLUiYsb77OkQWioSAGkgmIqRCZrKg6vmnLAgQPXePqZ/ZjK1pBn2kDR1G386dWvOPaTm+7hNN3DcOwnB6s/PEPFzAZ1rExT9mCq2E2R/H7TRubM3cPa9Rex2cWDkzhiPLsWXJ8D+d53AKLIeg1EobzTn+LID/0s+tvnlL1whuK/eShZpdclS9OFvBq9XlgSEgqINTo5ohIS9wJEA2g5QDTAZ7jIasXI2Hpn+XxRjhG17li2BVkzGsaObVeFKZDveg8mr8u/q0XJXxVVn1mU/UzJpuetilOxysYTq6+x+ViMaw4VDtEuh6pPvPcL6F5gOQ5EmbzkfGUD1lGZ3X2MxgMc9znYaB7mLYudJ51B1Y1GymikIesyUYdmD8tGsyDrdrOg08VjF608fNbM7JODTDvaTcUXXVQc7mLqwWtM+ew6Uz/rZspnPVQcvE75oS4qjnQx/ZtuZh3v54FTgzx+ycr8LidVvR4WDXhZMuJn8ag3C0INQwHiOBRl3zgQJU54c9LklwFR4oQKigYMs0CcP2Rl3qCFeQMWtZ07aOGJATPP9Q3y3tAw34VDDJMhJp0LxEWUmz2pZqz6Ln9Gd+Z7OU+5gNBgzLrMUuMn9xiRZGUqrho29PZGePaF3ZRWbmWSaTP5Eve7URlm/74ZiBqMRSrL2qRAIDAoFNe7bAeTy7ZnoShxyGZKKjbxyKOf8t4HP3DuooeA9CWU/yRTIRNB9gZWEt9Lx2RpoNzrRbcd01A0gHijC63HuTEJTATixJvPjStIAaLAUPoBaCjKUju5IVUykaKvL8qWhkvMfHAdeaUbuK9kOzMfa+RPr37Oqys+54VX9/DMi40sfWYvJdMa1ARSXNFKcXmzBmJpA2UzGnn6j/vpuBIlEs6oFXZyDeV2xrklEA3JKxJaAqzJRIILXR7e2XKBsiV7uH/JKQr/4qR0hbTyN+oKdeMEcXdFHZqyQBR1OPlnAFEUYu4KFSOxMbkupeJ5srxO/xtRimsjFNeFJlptiKKa4E1WfMPtBW683YDxt7zuVu+/eV+I4poQJmX6tgbScqxslZPKFb28vN3F4YtJlWBJpmTZkAyeXxeI+vOyIMxm/gSKco+NaDxIe8RPo9NGjXmUF81WFSeU5Ilyk81ulg57WNrvpVog2GZh9vEhpn/Zy9TDPUw91MuUz/qo2N9L+d4eKlp7mdLSx5TmfqY2D6htRXMf5S29lLX0ULG7hyl7e5lyoJdph/uZ9mU/s44OM+dHG/MveVjU7WfRkI9FI16qRwWGWQDmKsEcdVitMsQ5WWPlKgsUswpQ3nc7hShJFaUcbVQN2Vg4ZEUBcNjKPPVY1KEBRLOC4twBswLisr4h/tLdx2aXm7Z4FG9GioezrqD0HjTa1Mv2Z5xPI6SROwbkYpQVExLLkrKbTCLD0DC8/vejTH2omUklkhTZRX6ZuLxizTmPWygsa6FIqURRimI3/q1d6UKJJZbtZFIOEAvUa7dSVvEJjz62hbf+8TW793Zx6bIPqzWpWnsl5PaUchMvqf5OS0xc2o1NhJ8UmY//Jj0WjclZjUWVRc/NPBuPtYtqwNKAp+rWk3Wf5bHsTyWSBIPw01kzb6w4TMm0tdxXvIWiKQ1Me2A70x7YwtRZnzJ11idMmblNJZWKylopKm+hqKxJTwglkmTaztyFOzh23I5X7lIm/6tzaNzk6pZL9+RLGE1fJR7lJxiM0Xqkm6V/O879cw/yuwU/kfdHK6Y3BQii1HT8TrK5ClY1NwNRwHjrhEfufv05klEuVsXcks2Vzthp7q9DmSQ5JB5oqotSWh+hrD5E+eoce1seBymrH7fy+iDl9QEq6v33ZOWr/ZTd1gKUZT+/vD5ERX2YcmkXVh/BtDqK/FtTapzM/cjNmiN+uh0QkoSzLDLPcSnGB1HugPp5j42LbKzYVQXqpb4qjDsS5JjfyztWKy9abTw5aqXKbFftsqolsdBrYW6HmcfOjPDQ8SFmfDHAlP19Gm7NfUxtHmR6ywiVrWYqW6zMaLYxc5edWU1Za7Qzs9HGzCYbM5qsVDZaqGw0M61plClNQ5Q1DVDePMD0fSPM/tLCnB/tPNFuZ951BwsHdba42uxgodmuzACdiheOOFQBtYJiLjBvfHwrII650BqECwetLBAlOGhh7pAlC0TtJmuFaMaA4eMDZqr6hll6rY83R60c8vuwpGPE1ZIvHfzXlQO6CuPnAdF4jyRXdIJFLsZEQpoNRIiGI5iHHXzzbT/P//kQUx5sIU/a85c3k18u8T/5uzlrGpCiHCWTKuU42nar+jv9WPZrK1Tva1RAnFQmbrMkZsSVFHd7B0WmjcyctZUnnzxI3eqT7Gy+xBffXuXs+QF6+qwMDlpwOd1EQkG11lkDz7glrbibOQmiX/xYYCrjXxSorPjS9zeVFmeytDKZzGC2ezn0VTfzFkmt5Q4mm3aQb2phUsEu8oqayC9uVKZ+twCxTDLzEjrYqbLrEiZ4cE4D+/b3YbNIe+5cIIo3HLi1y6wVogQcpVuv3H8hwIp1pylf+hW/n3+c3y04x+//MEDBX1yUrpLYWVzF0iR2p2Am8bQbFOKtgZgb69NgVHBVK10khhihqDaMqS5I2eoAU98JMOs9H3M+8DDvQycL19ipXmdh8ccWFq8Xs7JkvZVFH5upXmemeu0oVWtHqBZbM0z1mkEWGbZ2iEV3sOq1Q9zehqleO8yiNWL686vWjrJA/XvDLF4zyB/WdPNeyzVOX3XhD0ssKvWvAaKRYVbFrwHiyTD+VJRrfi8tDjt/GzXzlMXB0mEHi4ZcLBn0Mr/LzsNnh5SbW7rvKqbmTspb+pi2e4TK3WZm7rEyc4+NmbttzGi1M3O3k1mtLma3upnd4uYBsWYXs5td6vGDLR4eVPtdzGpxMqPFztRdZsp3DmHa1kfR9uuU7e1l+lcDPHhylPkdbhb3+lg67GfxiCcbaxQ1aKdqxI6hDmU7ocxGJU90PaGow1sqxGwCRccJNQznD5i1e5wFo4BwvvF4IAeI/aPM7xthYfcgz/aNsMVmp0tuXJWJEUvHdNWAuljlor2xNO3Ok5muR9UVABJ7lPdL+7hYPEkoAteuuWltOcOfXmxixkObME1vpHDKLpUQKSjfnVWGohbHVaIBRF1eImUmhmlQaljqUp28siYmle1kssTTZDlgmcQkWygu30VJeSOFps0UFEl2+0NmPbSGRcs28cprjbz/wX62bz/CTz9exjJqIR7R4ErHveoe3RqGNyvDXJV4748loTsRiFI1LgJN7g0diUcZsaZZ/f4PPPR4IwUlmygu302BaQ+FqmhdJgSZHLRSLixtygJRwgYSemikcvYmtm5tZ3hAumsLEGVyGr8V6i1dZtUiSuR8KqMaNxz8tpdlbxznvvkn+O28s/x2wSV+W93Jfc8NU/JmkDJRhDmxPWnqWnwPMURJgBS/nUK2UrMoCrNIkiI1MXVXvZKaAOU1LmaudlC1wcefm+O8/RVsPgXNZ2HvRTjYDgc7tB2SbTvsOZdh1+k4O06EaDjmU7blqIstRx00HHWy9TsXW4+52HbM/avY1mNuGo652HzMRcN3LrZ952THt1YOnhji/FUrgdB/HRBDyTCjqSjHXHbWjo4oV1lihctH/Czp8fL4easG4WedlO65ztTdg0xvHWVGq43Zu13M3uNm1h4Xs/Y4mbHHQWWrncpWBzNancxsdTGzRaCnbXaLSwFSIClwnNXsYmazk5ktTqbvsjO1yapsStMoFbuGKd81SGlLD9MPD/LoSTsLOzws6fexaFCSMAI4W9bsY0vyxoAoalApQkmkZB9nFaKRJFlguMbZrbjFCnw3AFH25QJxnkCx38wT/aNqu6DfyqKeUVYPjHBMVCIpAkhW0lB32t37OSpfXejZG8unpX9mwq/W8QZC8P3JAVbWHOSxxz+muOxdSqZupmhKUzZDLImUVvJVqU1T1oXWUNSxxWZEAWoTN9p4rEtxxJVWtYtluxAo5qmtzjxL5lq7laKkGnWbsJKtmMq2YirdSGnZambO/Ad/fmkDX39xHqdVXEsjpuojE5PC6puLtX/ZvvHqFt1sWlSiTuTINhGTyT5IOAYnT7t48ZWDlE2V47UjRyHfCENZsSJQFLd5F3kljUyp3Mi6dWfpvS7dhiR0q4GYirlJxTy3UojSikjLx0gsw8Bogpp1J5j5zLf8Zt5FfjP/Kv+xoIP/WNDOfy7vJv9lBxWr4pSpzjQ6M6yAmF0HfKekilKUq5MUrdZAlO7WkigpWCXubpg5a2M82wgrDsPGU7C3Hb7php/64fwAXBqCjpEMV0YSdCiL0zEc5/JQlIsDEc71Bvix082JDjvHLgxztK2f79r6OdrWx7dn+/j2TO8t7eiZXr67Bzt6podvz/bwzdluZV+fuY7YN6e7OfpTN9+fvkbbhV4cjhCxiBF/ubOS+FkX2Zg6lNCGLK3044oFuRDy0Ww1s3JomCclbjboZO5VO3NOjVD5RS8V+7up2NPP9N2jzNrt4oFWHw+0+nmwJaC2s3Z7mbnHTeVuJ9N327W1ChydCowajgI+AaNbm4KhAFGg6aayWaDopLLZReUuFzOaXMxodDG90cq05hGm7Rlk5leDPH7eRnWPW0NxxM4i8y0SKmMwdLJwONekplBnjCVrLEBUbrByj3W80HCLDVU4EYaSVJEY4jgQn+gX99rJvF4rr/UMs8tq5xppXCTHumzruNbPhGI2U52RjkPq1rwBrFYvX33bySuvt/Do3E2UVGxmcpE0ZjBqD6XMZrcCYoFSdY2qtlA/NkpwRO3d2hQcBYjZGkYNQwHjLu2KZ9VmoSjQ0lbyTC3kFbdSZNpPSekB5szZy2uvHeXzQ0MM9ycUn0jJejm5jYYk8MT0IoBfbauKt7MKXFS4MmlK4iOVlrsGZjDbMny49hiPPL6R4rLNOXFUrQzV8kYFeAGiwH6XAr/Uck6d8SkffXSGnmtyz24BYoSMWr8tk9Qtl+4FyEiqPRXC7U1x7KyTpX89RFHVl/xm3iX+Y2EnvxUgzr/Mb6qv8n+fHqTszRBlq2IqmSIJFTFJjEiWWIBo2M0xxByXOdvwobTOxwPvufnD1hA1n8P2s/DFNTg1DBescNkKHRa4MiKWoHM0SudoeMy6RiNct8Totsa5ZolydThE+4CP8912zlwd4cf2QX640Mv353v4/tzN9sO5HsRO3NW6+eFcN9+fu873569pO9fF9+e6OH62ix/arnPibCenzl6hf9BKICBuhcxGvyIQVc1hdmDK58aDDEeDfOFy8NHIKH/tH2Fxj4VHLpuZ9f0QlYcGqNjdR0XrIJXiFu8VJehl1m4/s1p9zG71MqvVy8xWDzN2u5nR6mKGUodaIQoItWmlKOAzbEaLixnN2mSfPBYY6n1uKne5qWzyULnLybRGM2Xb+ylr7qXyyDCPn3FR1eVl8aCHJaNeqofFLRb3WVRjbk1hdtVJtrha1xNqEAoMF6gSGh0vNMB4WyBKdjnH5g5YmNtvQbbzBu3M77PwQvcA7w8M8UMizlAmqYrcjYTjxGTCPZxTuem8dJYXgEhJj8vL0e+6eOW1VqbOfJ/iinXqlp55JbL6RNzaXVlVKOpQYobiLst+UYnjbvN4wsVIvBjbiZCU9+QCUT0u30V+RTMFFfJ5TUwy7VCNaKdVNrJs2Zd88P4FfvjejcuOUlMquaKWeYhyyyq6fykQJbQgZT5Sq+kjnfKSTKZVd+/tO8+xcNE2iss2KegJ+G5nGogSN9VAXLNGFKLcAkR+V5JUVPejlOvzJpdZLdGTgsx0hIGRKBtbupi5fD+T5n3Df8zv4LcLuxQQfzP/Ev/fgnb+96Iu8l6yY3orqNxmk9Tl1enSGwGiQFCAeDMMjey0lOxIA4U4pnfSPPhRkJdaomw9A8cGoN0O1x1wzYaCXsegj8v9bi72OLjQbeNij1XZpV4rl/tstPc76Bz20DXi5dqol26znx5LgOsjHq70WznXOcDJC12cON85wU6e6+TUDfbjuU7uZKfOXeXkebErnDrfwY/ntJ0818Ep2d/WwYkzl2jv7MblciJt/H9NIObGZmQmleae1yNBtpstvD5k5pnro8y9PMy0Yz2UH+hhWsswM1ttVDbbERU4a4+fGbuz1uplRqsBQTczWwV2Aj7tAs9ULnPWbVaus7x23CpbXExvcSHbGQLEHEBWNruZvsvN1CY30xtFKTqYsdNGxY4Rirf3M/XACHN+dCooLhn0K7VYNWzT5TLZJImUzmhzqMLq+YN2FgxK4sSmQCiJE8MMd9jYKhWYdZPHFOIYDK3MG8g1gaKZBQNmnuoZ4NXuPlr9Aa4m4kSz69PVTeSlFnFChvVOUJTzLsuXZFmc1N+lOdd2jZq6A5SU1+umqCUNTC5tZrKsPlFbeTxu4u7ml0v5jI4BSqG1Nokv5pqx3wCj3uqEjFaHY2Cs2EX+tGbyKhrJV/dY3kbZtE08+dR+duzo4fo1KU2RZajSGV5c5ewaZFX4/ysrQwOsExSiwFAft3TcTSLqUMknaeXV2HiGqsVbc4CYLTNSJUcCR0MtSshgl4LhZFMjUys/Zf36Cwz0ppGOb9FgAq/TSTQgJUXxWwFRvoTEBaKcvezmxbofKFr4Gb+f/z2/DFMeLgAAIABJREFUq+ocA+JvF1zmNws6+E3VVf5jaTd5rzgpWRWlrD6JKVs6kwvEW0FRucwqZhimpNbPoxvS/ONL+EzcYjO026DbCt0jYa72O7ncPcT5rn7arvbxU3svP7X3cLq9V1tHL2c6+jhzpY9zXYNcuD7M5V4znYMOro+46DV76DW7uT7s4OK1AX662MUJAVbWBF4nzxrWzsmz7ZzK2o9n27mVnTx7mRNtYpc42XaRH5Vd4se2y5w6d5mTbZc4cfYSZy92MGIeJRqW5puSrbzTxfNznpMLTTehlXquYNTPOb+ftUMWnuuzsfDiCJVHuyn97DpT9g4ys8XOjGYns1q8zG71M3N3gMrdfip3+6jc7VEucaVShYbyM+KF41DUqlGAZ8BQ3uehssWtgahUoZuZzaIStQkMpzW5mdroYdpONzN2upnd6FYu9JQddkw7hqg4MMRDJ6xUd8nqF79aTicrSFT5jKhFBUQNSQHh/EEBoYahZJIXDlqU5UJRATHrEhuu8cStqMRcGMpj7UYLEJf2DvJcdz8f252cjUYJJaVLSjbbbJTf3NO5zAIx5VfFwHZbiA2fHOLxuR9SYJJC4+3klexicunurN0IRR3/00A04ogCOgN+dweiVpWiBMU0GCXBcl/ZDu5XN5/fxENzW3hjxQlO/hjFZoOYvrGfciuVi6yaPsgqFmn28F8LRKkV9DgGudp+naHBBOs3nOSJeQ0Ul21RwFOrclQxusQMBYLGWmYDiE3kl0hSpYGt27oZHQGvC9p+us6p79uwmx2QTN0MRKkzEnT6fUE++26Yx178ivvmf83v5v+k3GVxmSWGKEBUrvPCK/ymupNJfzJjeitAeW2c0jrJOksJjVaHt1upIvFCaY5QWuNl0adh6gWGXXDWAh1WcYmTtPf5uHTdxvnOYdqu9nP2Sh+nOwSIBhSzQGzX++W5s1cGaLs6wLnOIS5cH+Fyr4WuISc9Coperg06uHRtmDOXexBleLLtKifOXuHEmSucPHuFU20d92jtnGwTu8yptssKhAqGbe2cGrPL/HTuMj39A3h9bqT1kK59kotEzABgblmGse/OWx281kCMpsLYIl6OOl3UdltYcNHMA8cGqTjYR8XeIabttmj3VxSfqD9xiwVkYgqGrjEgisozTCm9nL+N/QLAcfOgVGAWgDN3uZkpMcMmAaKXaY2iEH1M3+VneqOXmU1+ZuzwMH27m2k7XJRts1LaOMzUA2Ye/sFB9bUA1QNuqoacSg2qOOGwlYViQ2I2Foo6VCYwvBmIAsb5A2LmO5jxmhu3Vub3W6juGWZ59yArJLkSDOFNxYkbXYwUEMcTAePn8dbnLKUaCQQIhRIcP9HDn17eSunUegpNGymQ5g0lsj5Zx/K0i2zASwNMu8wCQwOIsn+iCpz49/j7jRijykareKO4303klTcyWTLMUxtY/vwRPtnSRduFGC6Xap2plGFa1uSrSUBEktGhJhs7NNzmf9lW/k2jsUSYob5uWpu/5qOPjvKHZ/Yx44Gtas22TiRJ4kRnk8ez7kaSSeKI+vkH5jSx9zM3Z8/H+PzzHt57ew8njnXhdsj66eTNQExLwBQYGHGxvqUL09Ij/Hb+SX4z/zz/e2Env1lgALGd3y3oUPbbhVf4/VP9FPzFQdmKEOV10lVa7lynl+1JYfZNZTfZTjHFNREeWxtj9RfwxVW4ZIEuS4auIS/tPXYNwiuDnO0Y4ExHP6c7+vkpa/JYTPZPsCsDnMmxts4hLvVY6Bx00j3qpXfUx7VBF5evj3LmYg8/nrvGybOdyk61XeVU28+B4t3hKZDsuNaDxeEgKSsSpPBU1WuNA1FnIWWZ2Hgm824XmQ5sSyV/AH86TG/Ixe5hC3++MEjl8UHKDw4wZbeF6a1OZZIUubuJ6+tUak9c4DuZQLCyWWAosUEdJxQYzmpyM2unkxmNEjf0MWWHm2mNPmVTtruZvt3L1AY3FVucTGlwMXWri7Ktdsp32Jl6wMLjbR7mdztZOOBi/pCd+cNSWG1hwZCZBUMWDUUFQQOGGogLBizcaHcG4i1g2S8wtDGvz8aCHjNV3SO83D3I576AapIREZWosp8TFdKN7rPuii2rUHTyRSbBZDyEzRFj3afHeHjBeiab3qWodLvqd1hUomsJ5WI2ADa+NRo75G4nxgjHX3vr/eJCFhvlKCrJIq53I/kVTVQ+vIu1n1yhozOmmsVKwxndwTt7v3U1XgX04+P1bmPz13hexSmVEhWxkKDvWi/r1x3iibkbmDJjJyVTJMkkx0SOmWxz/i7NTUZJD8lGSqbsYs68PTQ0WVi36Txv/P0gr722m45LYSIhoV7sVkBMqOL0Cx2j/H3dWe6be5Dfzj/DbxZc4n8v7OI3WYX4u4Xt/OfCDv5TqcUO/mNRF//3uUGK/+alvEbuPRKj6A5AFHUoPRRnv+vjjc/gUCdcsQoM4epQkMvXzZzLgrDt6qBSffcMxCwgFTCVcuzn7FVxo0e52u+gZ8RLn9nP9UEXl7pGOH2+W0FRwPjjua5fHYiiFi90dDJoNhNThaa3AKJSHD8XiOK6+EnEA7gTYS67HWzqGGDZN12UHOilpGWAaS0SM5TaQCMhcretqMNsdjibGFGZ4ls+NtxiAaKH6bu8KnEi2eSZO5zM2O6kcquDyi1W/n/u3sI7rjPL175/xvete+dOz/T0hMExkywmUxwHTJLsMHV3oNOB7nSYO3Ecs8VgWzLEThyz247ZFjNUqYQFYoZCPd/d71tHKtkypZ1v7pqstdcplUqKVXXOczb+9uIUK48kN7I0qY7HxRItPJpYx9Jt9SxNbmJxUhMLkpqJyrTw8FEry4tk9K+bhMZ2BcRV0lTdYCOuwaZyhUaILMdACE4EQAl/4+tuzsQzXGVxKIurtRNvaua1mga+7+ql0eWkz+vE45Wm4TEgSjFLCb0a+7kDvpbnJXeM14nLOUC1qZM/vpFB+KL1zA7dqNpCQsJF+HX3aJin4RYIv3/2sW69ESiOeYnZzA7bzpzIHSxfc4ADR7voEtUv0SMU6ffRCq+u9N4OwN3q7xh7j6WI46HJ0kRqykliF/yduWHJal5bv1cGEKXXUN6rXarxXB39HrF4iJHz9/DEqh95890LLItPZPVTm0lJvqREciVXysjw1UCUHQeyA+b4aROvfHyKacvFQyxQbTbXA+L9CWU8+GwNM1+3E/7RABGfOwn5QjxDQ+1mfGFFZo8fXtvDK9uH2VMBeXYwO7xUNnRTUGXV3mCphMj1fhjegocYCETjcamFy2X1FFY3U1nfpoBYJ1Csb6egrF5B8XxulQqbb7eHKEDML6nA0tjEwJBMksjd1pg/1iHWqOTaLXmIEk5IO8Igra5hzjRY+ehYIcuyi4ja3cz83QLDNubvaFO5w9ECiVEomfAoleH20YqxUTm+6rizgwU7/CYw3NFNzA7xAruZn9XB/IxWYpKsRG6wMH99DY9vquKZlBr+lNPI3/bb+OBHG+/ut/OnXc08lVzDYxvKWbS+kpjESsK3V7HklJ24im7WNHYR19SiJkwEipIXjG+wkaDMX0hRnqEuhFwPiAl1Nm5k8VJptthYabGzqtbGSlMzv6+qZ2d7NzVOJ10iXS9AVC0nOnQ0YChHuegDv9ZA1LtsOtpbOX6yghUJGwmK3MycUGkZkeT/Hub5gWj0FuoL+58FofHzEo4bJgo50tso+cqdzI7YwZIVu9jzQzMdog/rk8hRtqYZLS//lwBRNns2Odi5/TyLHv6WoLAUNX1ys0AMCpOiSzaRsTuJjE0lduEW/vruAYqLepUmpHjFcl2OqzLLmyDFpN5+2PF9EQlvHGL6ihM8FFfCpPhy7SGOC5l12PxQXJmqON+3poJJL9QqLzFCvMQvJIc45Jf/Gl9tDv5sgNWJfWw4DWelhaYFapvaKTc1kldm4VKpEQ4LCDUMb9VDDAyj1e8rtajQu7jGRk1jJwLE2qZuKkwO8krqOJ9XxZlLEgLf3pBZgHi5sJSq2jq6e3twq+qkAUR9Ef0yIEpOp1uNljlcbk5YHPzlhwJW7qxSofFopdjfNC1TJDc2fy9hYF/hBI8X7mhngdj2duZvl5C4m+jtvcRmdROb0UZUUhMLt9WzKs3GWwf62XDex94yOG6B0w26jernBjhshuwS+PbnIf68t40VqTVEJJYwf18Dyy61ssbS6VemcejRu1EgWlUlWLy/iSAY+JzhHd4IhvL9QCCurLWxwmTlhco60lo6KR120jHixSOrP0cbkvUN7co2nPEhswgWuGlubiZzx1kWLV1HUITIe0kBQDzDveqoPRojZDZgdjuOOp+oxv8EhhJOhosUmAAxi+hHUsnIrsTROqw6a+Tf+n8dEEeg1dqqgLh4yTqCwlNUv+bNAVE8ZLnx7CJEFH+CEomL/5G0tCq6u9S+KqVfKo33o0A03gCXCxydsCEtj0dePMC0VWd4ME4asSt4ML5KHY2iyuR4DcRJcaU8EFfK/fFl3P9kJXP+ZCfig34iRPla5LmUpygiDyIAMUTQp33Eft3Pm7ud/FQDRQ6osLqorG2mqKKWXKkcX5kXNDy9m8khXutnBbKlFvIrGimvdWBu7KLO2ou5sZPiyiYuFph+NQ9RCitl1SbaOtr9QBQQjpkOD7Q4782GFjrh3KP645qHvRysaeONvUWszKllvrTEBPQJ6hYao3/wOkcJjQ3YXec4f3sb87PE2pmfJcWRbmLSe1mQ2sqCLRZWpFp4Y7+NzRcHOWyBoi5odEKrF9q90CVHD9idUD8IBQ44WD7MtyftPLu9jEe3V/D4kVrWVHSwuq6ThPo21XStQ2aBoQZiIPiu9fjWgGhjlUW8RDsra+0KiM+WW9hmayd/yEk7sjfnaiBe7zNTqyR8PmrN9axbf5CoBWtVr6FMiRgFABFbEOFXZf4w7/Z5iboAM0dVpSWflunXW0xibsQWwmK/ITH1Eo3Nvap+MKJabPzC0DJKp0yD/3p/5+3+3riQGQ3EHVnnMIAo6t/SW6jfN7lxGDnEK0Nmo+osy7oyCQ3bynvvXeLCuT4lRyWFI69LZqYDPEQFRO8Qwy6w2ODTjbnEPH2QaXGXuX9lBQ/GSTFFmrLLVXVZV5lL/U3aZTwYV6rsgYRypr1gIfTtDqI+HiT8s2FCvnApyf2ZarfxAEGfdLIy0c26nyFf+gvtHsqkraaylvzSGnJVC80VhZLbAETDY8wtq6OwspGK2hbqbb3KKswO8pWXWPmreIgCxJKKGmwOB24loSShyFjorAskump5syeWBmIvbp+b2l43u0tbeWV3KStEVEG1wuiCh9H+clXYO9o4bTRQt6upkpisVsSkJeZ6FpPZSmxmGwsEiGldRCV2ELOhjoVfF/CX/TZ+qIEGD8j6C8lZyxJJp28El9K4c+J2u3G7dYrG6YM+F1R1QfKFdl7aWcUTu0pIuNzCk6YeVte1+z3BZuLqDbPe0DsUSE4ExHiLjXiL9SqLs9hUU7aCogKijafKLGxobuPioJNWwCVAdBn7QLSHf73PTGZxfZ4RKspr+fiTPYRHf8ecUH2RSnU5KGynsrkidy8XuMqD3c6jAHEXQZF7CIvNYeEj2Sx9YjtLl2Xw8OPJLHr0a5JSz1Lf0K2AKDPWktLRXvDNV9Kv9x78ku+NA+IItDS3sD3zrAaiKAGFZSh5tNGxxvBrAFFuNGG7CArdTVhEBksfzWTnDhsOq0idoYVvXaKqE6B2YwBxYBhyy538+fOzBMf/yJS4PB5YVcWkOIFhhR+IAkJpu9FAlPYbwyYllDP5qSrmvWYn4r1eJHQWwQcRkZ3xmZvZn/YS9VUXr++DnFIoa5MiShfFNc0UlpvIKzNdBURVHPFXlOXxDavM1/AQA4GYV1ZPSbUVU0OnAqLkEosqGjmf9+sAUSrNReXVNNvsCoj6BJGLSSuFaCBKm8HN34nVz3j6cfl85Db1sulMAy/sLOeJnY3E5nQzP6ebBdndLMzuGu0JvBYUZbxOpkjkOH+7TJN0KIvJaudaFpvZzvyMNlU4mb/VQfAXZma/dZI1314iJ28AywAMyvmGF7dvGI/s5JGcp7OLEWcnI+rYAzLOJu1eHieyGE1+LvViFy/vL2P54Sqerujiqdp25RWOwVCg+MuAOBEIx57TQIyTwkqtgxUmDcR1jS2c7XfSoqDu0kC8yV05GohQVmLh/Q9yiIzdwJyQncwNFZOWGxFwFdFWbbcfiBqu0Yv389QLJ0lKs/PT4R5OnBrk6Mke9uw3kZtvp61dCyJKp8kYEPU5eSvn5S+B30Q/o4CoilfSCjiicoiZ6adVDnFeuIjAZl2jyjzeQ1Q3mtBs5obkEBWTzjvvnCL3kguX/Lmq6Vw6AfQGvvEhs3eIvkE4ebmTP3x0kqC4HxQQlXcYVzHaZqND5RKMkNlov5GjgFEatme+WEfw2+1EfDqkJPZFln/mZx6CPu1hybedfH4CjlmgsgXK61opqGrgcpmZy0aDdQDUrgTilV8boLvZo3iIuaV1FFU2UV3XTp21B3NDJ6XVVi4V1nAhX1pvbtxOc/OvkSbvYgpKKqlvbMI5ZEAvEIjGHfnGHkfgySMnzaBnhOM1nXxytJ4nd9SwdEczMTu7iFXFji4W7JD2F7GAQsgVj+fvkFygYR3EZom1E5M5sWkY+qvIW63Mfa+AKS8dJ+IPe0k7ZsVk99HvBrfXq9qMJGEt7UEetdynG4+rG6+rB5+MswkQVXuF7EWGwRFpv3KzJbeJZw+V8mJRC8/WtCoArhr1Dn8ZEK/lGY4B0U68xUGcpXUUiE+X1bKuwcHZvmHlIQ6LKoB/TYPclAI/j4kei2qULE4qL63n/Q+yWbB4I9ELdxO1YDdBYZmoRVIBata3G4jSchIckc7qp0+QmuHAVAut7dDeCa0dYG/10d7hZFB06rwywSHN53I+jp2T+u8M/Ftvvj1sovfkZp/TUJQt8z4aaxvZsvkwCxZ/Q9AoEKXN6AZVZvG6w0Q8N5vHnthBdnY9zY3GBI7HH6nJSoOAKrPhIfYMwIHTdp7723HmrBIg5ipBh4fiypkigg7xJQEmX5cxJW7MBIqSc5zydDWzXrUS+qEe6Zsnuoaf+Qj7rIeELd1suwDnm6XNxk1ZrZXcijrOl1m4UG4UU8ZCZgOAV3qG8vzNQjDwdQYQCysaqaxtoa65B0tTN5XmFvJLLb8CEMs4d7mYvKIKausaGB7UbRo6h2h4iGMn4M33ew0iY2Qdgx72FLbwxg/1rMyy8HCWjWg1GSKjcp0sUNahCiBSBJnIdC5Q5wSlWVpbOwK+CS2jg/mpbURtbmb2+4XcFb+HaatyeOWTE5jq3DAkJ5rHX43tYcQlcvkCxD5c7l6cnl6lBSi7caUAoXZ+SyrBJfDwMjjs4nRTNx+dNfNavo0XqqR52srK+mbGoHhrHuKNYSghtJ34/3NOxFtEM7KFlSYbz5TVsr6xhfMDOmQeGgXizXr0ThWaVZQ18fHHu1i+MoknVv7Iksf2MS88fVSrb7Yh73+bQ2bJGcoS99deP83Fi15c0mcIeEd8eEY8+PDikb3MTqd/PYBuC9NANM5LfZ7qc1O+L9CUo3Fz/zWPQ+qcMFea+fqr3cQu/Jo54Sn+rYPi/V4fiErpJiSD2IV7eP2N45SUuBjolzdAPETptZS/Q3KIAaN7Coi+YboHYNfRJla/c1yLwcbl8oBf4WZyfDHaxDs0PMSxBm3DU5RG7Umry5nyvJl5b7UR+Yksdfcw9zMf0V/08IcsJzuKdKtNZfMQpaYmcsvruKDC4fqrCiqBQDQeBwLuVh8bQCwob6C0xkZtc7cqrkjYXFhRz4UCCZtvp4eogXi5oByTuY4hAeLo0h2562pTIXBAocV4fuKjnIBDSr6osWOA5LONPJ9j4bGMehZl2onJ6iRGeXkd/sKHFD/EjGLItY7txGaIdfjN+LpNVY/nZ0iY3MGCtE4WbHIQ8kEl/7FsD/9v8NdEP5XD7qMtaj+HKEBrfSXprZTh+T7VjydAFFFUtyhFqxBaX0hjVXbdiymS+uZ+N9nmdt4vqOcPFY2qqryy3soqFSobMLxiyqTOrqZMpJ/QMKkcx9VJKHwzZkfC5XhLKwniKZqsPF9Wy9bmVvIHnXQAQ15/DlEEGybwENW1FNC2MiLDDl6oLK/ny6/28Ps/5vD080d4bMV+5oWnERSepYoso/tOlJDD7csh6iJKIq+/eZb8IlRbnW/EhdvvtbuV1y7npF+YVf7tqooeCEMRgh3bPaJheDNANM7vmwemBpTc7EWiSya7REsUSorq+dt7O4mav5bZYanMCZORR1mtKl6ivF9GH6IUqIzGbHm8ndnztrEi7kfS0i10dendz+qGrT4nfS35rgKid4iOXkj53syKP/+DGSsPMUmAGF+u+hAfii9isjIBYyAQBYraJK+olHAkx7imnBkvWYj6Wy8RH7uY94mHmM87eWu3h31VUNQKZQ19FFfLJEodF0u1XQposxHYGRAMPN4qBOX1CoT+cFlC5vyyeoqqmlWDtkyv6Ebtpl8FiBIyXy4oo7LazMCAwGFsgkHyFxND7/rP+5ROnKj79PLdiTris+pYmtHMoswWNTMsIa8BQCl+3Jy1E5su1uE/thGb3kpsegux6Q5i01oVDGO2thLyfhX3rTzG/5yzmTtDvuHlv52gok5fcJI5RIoPanWCFp6QBmUtGS/HsZuC9jK016HAKFVN7zDtXh95vS62VDfxdnWj6iFUajT++WQ9miewk+mSQJPm6jET5ZqJbJXFpnoNpd8w0OS1oomYUGsjvqaJF8tMpFhbKBkcQsoOw2oDnewx1qC/kZekQANYaptITDrE12tP88Lvf2LhEqmSpml1G793qBZA+YEo43q3J3zOZFboZta8cJADR9pVWszjGVYagyL1p8Re1Uy8fAYCQymkiPcrpqEoMBQJLtkYqM/Va8NwNPc3+juM8/hmoagjH69zGM+w3tM8NASnTtfyzAvbCJWiVLisWdX7qnUxysi/GiG01pEU73F2SCoRscm88+55CotR6wjEGxSHwvg7NeCvDJk9g7T1wLY9tSx74zTTVx5lUlw+UjmelFDCQwmFCBSVQKwqqkhh5WqbFFeM2EMJpcx4uoqwP7UQ+f4gYZ96WfxlFx/8CAdqoLBFgNhLcVUDeQK+0nptVwDxl8Dvyp8xvEIBoWFSWCmUPGJDhxrnq2nsUDPOv4aHKEC8VFBGRbWJ/n4JHY01jHobmZ5vlhPGOHmMEOXaR9nT4nIOU9rQyZeHzDyRVs/DGXYWZYr3Z3iGrczPkmrwTZp4h+OAqGEYk2YnNt3OwvQ2Fia3M+cTEw8+fZrfheXw26kbCV64lc/XXcbRoWbkYUTCHK12LC0N+u+9toagyGqJcIIeYdSVzX6fi3qXk90NTXxobmC1TJEoMQYtwCBCDHH1gSDUjwNheKPH0mt4pYk3uUoq0OYmEqobebm0hu2ONqqHh9SOFaesyVQ7i0XOSz6v61/o8reJbExbaxunfi5n155q/vjaAaIXJvqBKNVlfUEbQFSahbcNiFnMDN3Cw6tyWLs5X+UN3RIiq7ytLKMXxWhZi6pvUgpo6nsGELV3qIEY6CVe/XePwnDczwtUb/w+GTdGo8DW1dZJcUElFWU2TGYX2XsrWfyY9HBuVDeR0ZuFX81Gf20AUcJoDcVZwck8sSqbLUnVqvlcWgvlhuyVjYcqh92rlmhJ+ml8UcUPxK27zDzxp58VEB+KL9TjeglSMLkWDIv9kNTHSfECRP3aKWvKmP1SHWF/7SbsEzdL/t7Fp4fgoNkAYhfFVRbyyrRyzZUgu11f/3cE4oh3GJdrmHyTg4/3V/JoSi0PC7QyBH6SBxSvsGXUYmR65Homs8SZ7URntBOd3kF0uhxbtaW1EJPewqKUNqK/aWDSy+f47cI9/OvMVH43ZQOLlmexLa0KUYBWY1A+UU2SC0bf7VXjslwkAgd1sfhH35RHoj0T5Z0YF5KrX+1Fdng9HLY5+MzSyBrx6EZlu/TjXwOIK2utrKxtJs7USEJVPa+Um/i+o4sm9zC93iEV7quF7uNCyKvhYIBSydR7nQwO9lJf383RY4388dV9hEVt0vnDsF26SVoVVvxaiLcxbJaZ5ZnhyYQuzuSlP/1AYekwfX0iyziic7yje8MDvEKjaKTai6TFSESjtXC0/F2qRDvqSY6F1obHNfoZq9dc+70x3qPAo07fubA2tPD97lNs23qMnTlVfP71RcJi1zE3PNHfnmSEyoGe9JVAzGFWcBJPv/Aje/bbcHtVOlKJwXplDYKolzt78TrF278GEDfnmHj89VNMX3mMKbIuYHUNDyVIy83V3qD2FscD8aGEYibFFymbnFDM5KcqmPtGCyEfDLLkqw4+O4Jq1i1uEw+xg6IqabWp4VKZacIq8+2A4n9nIF6sbOL9vaUsTTLxcLqN+ektRKe3EZ3eQkyGI8Dk6+uZBmJURjuRGR1EprcTmd5KVJpAsY2otDZiNtqY8UYev1u6j38JSuXfpydzx+R1PJGQw47sOlUT0a0M/j498aCcgUUTAaIBReOx/6guNLnY+pXnNex10ul1c9Lh4CtLI09aJG9oeIe/HhCX1TSxwtxMXE0j8ZV1vFlTx9H+fjpH3Ax5B/GKRp9bdm1LuCke/PUveJUv9gzg8w3SPwBHjtTywouyx2Sdqn7OCdurtA/1zhPRPDRyYYEX+i9/LL9vVmQG0yPTiH0skdSsCupEAdslWQ3xymWI2eir1PPxssZ2nKnXyOvk+/J5yfii3OAEhvKzhmlvUANRN3XrcPTaIfb4988vPzjipLGujZTE46xOWMsLL2Wz+pn9zIvcxtzwDHST+URTPYFAzFHiurOCt/HSKwf56YgDnywQVBqPXfjcei+MfIZ63HIiIHbD5uxqHnvtH0xfcVQBcfJqEw8ppWzpOww0AeTVMBQIijduqhruAAAgAElEQVQpUJTjfXFFTHnJwtx3Onn07x18cRSO1IEGYjtFVTXklVdzWQFRWm9k7viXVZCv9XP/XYHodg1zqcrKh9+XszTZzOI0G7FpDqIVxH4JENsYBaKA0Q/EGIFjYgshn5n43fIf+NfQdH4zK5k7ZqZyx0PfskwB0YIUiiV9qDwo8S5k5tcpM79yEUnBxF80UZ5gwHOjuSu9gEk8SRFkbXMOccrh4GtLI09ZmlVhZWwiZaL8oQgzjOUPb/T4ynB5Ra2NZaZmNaESV1nPk2VmPmuwcW5oiP4RJ27ZFawu/m4FgYmKKuMvcN3j5vP2M8IAg4Pw44/lPP98BsFh44E4U60KFSAK/OTCnsgDunUwyu8T2E6LyCAoZjPxT2ew/8d6Whxa1GbEJX2HsibXnz8cndP2q7Grr/1eobzW5WXENcKIy8eIy8OIy82Iy4X8Hg1K/+c8uoPmZmEoNxYRau0BAWJ9N0nbTrN48edERH9LWEyqUhWXv2eOEsW9WSBu5Y+vH+TICbtuPBcgujUQrywUXRUyt/dC0vdmlktRZdURpiYUMQZECZsDgSiPJ4Li+OceEKWcp6qY9oqVJZ86+PSAj59MOmQulcpupQZi7n8FEKua1FyzIQlWXNX4KxVVSsgtLKfaZGFwUKSg/vkcogqZncNcrrLy0b5yHhUgpmsgaq9OPEW73xx+j/F6HqJ8r5XojDZt4hVKyJzWyvzUdkLW1vPgH87yv6Iy+LfZSfxudip3z87gjsnf8XjcTjKyzAxKO4MCot/r8Ht7gUBUYbSE0m7Z7Bho+sIxwq1BjxO7y8lxewtf1jbydG0zunVGpkxso1XkcQUVpVQjwgw3NjWrbLayIsCW19pYXmtnudnKkxV1vFJuJr29m1KXE6dX/q0SVgro/d6S+vpGHqIUkXrxjfSppW0//VTJCy8IENcSFJbB7LBdSil7VoTMFu9U4fPYCN8/D0UBiIjBzozMZG5UEvOXpPDGW8fJ2W3GYnErIVgRdRj7T/Yxi8qD7OkUG1FVclGYljTvYC/0dmmB1c526GiHro4R+kUQ3CmwGWHELbt3paVFQ+5mbhz6RiJA7FXqQHXmLjZuOMn8hV8yT24eEZn+VQqyDiFHrVO9erInUMRCe4izQ7fxp7ePcuJn7SFKr6taS6BavgzvULd/jQeiVJn7IPNQA/F/OcWseAFioT9kDhzbMyZTDDhOFEqPPfdgQin3rS5n0vMWYv9ax992DbC/AgrsUNrQQWGVibxyGdmT0Pn/Xw9Rqsymps5RjcSiyl8PiNKHaLbUMzRkwFCOv7yoIkAUD/FytW0UiBIyi4coQIySY7qdqHSbOkanayhKKH0tkzyhrijrnKH8TExqC7FbHcx4v4x/e2If/ysoiTtmJHLXrFTumZ3JnVM28PATmSSmVNDbq/SFtfS7vyKpVGCUio+GnxRPPJ6JTRUg/B7KgNdFk8vFQVsLn5sbedrczOpaq7KEWukZHBuzC/QEr/T6rvd1IAzl8XKzjWUWB4+bmnmhoo6PzU0cH3bT4JO92uIlSchomF8oVYWO14Gi2uvch2+kn6FhOHrUzEsvbSckbK0SOA2fv5950XuYHbmLuVG71cWuZptvp5cYKVJfWQRFZRIWs52Fj+Tw0h8PkJhSxLkLDiqrO2hobMVmb6elpQOHvQ1rk4OGumbqzFaqK62UFjWTe6mBf5yo5tDBSvbtq2DX7kpydlXy/fflHD9morjQSltLP64hWdsqnqcUU6QQc+PUguFZq/PF7aSqsp2/f32UmAVfExS+Ra1KmBO+R70/otQj4hTXA6IS2lUz4kn85f2TnLnYptmu9B51AU+HymPybVcBsWsA9py089T7p5mz+jBTE/L12oAEmWE2ABh4HAPfxDnGEiYllHJ/QgX3P2Ui+JVyXk1qZVch5NugvKmH4moL+eVm8spqyf0VwmUJoycKmUVvsVjG9xo1EKtUH2LDr+Qh+huz6xsZHpK9GmL/HBBFY08aavPNDj7aV6FD5kAgpo8HogKkgqUA82pT8JO8Y3orMWkt6jWRqQ5ikluIXNvApD9e5P+JzOA3c1O4a2Yyd89M4+6ZGdw1bTORi5NYu76Azk7ZZKbvwCrBLso+ysT7CwCiQDHQ/IBUYZsA0d2vpLYqnC52Wlt439zEk7VWEiw2bdIS8ysAUUOxmWWVdfy5ykKGo4MKoAOvnt5QaQDxEHXbjZYB01Vx44K+6uiRxVIyzT2A9D6fPdvIq69uJyL6S2IXpxL39D+Yv3Q/QdHZzIuWyqiRB7t9YXNQ5A6ComS1qVaODhJh2ohNxCxax0t/3MlnXx0hMeUU23deZPfufHKyL5ORdoZtW46xcf1hvvz8B977227eeGM7zzy9lZUrN7Bk6VqiF3xF9MIvefjRL3ny6fV8+NF2zpyppKNdFkN5VdO9huG1qsxyXowPqaWo4nUOUVRo58OPfiIyVuS+tjInXDxpMdk1s0N70ldV4rWHKDcUAeKcsGxColL45Kvz5JfoWW3xEMd/RvJv0zYeiNKYPQg/nG3lqfdPMjPuRybHX1bSX7J2dHx4fGMQGoAUdZz7Eyq5N6GGqU/nsfKTcpJPO8mVSRXbAKWmRtUQLX2BeaW3N3do5BQnAmJBRSNlZofyDi22HirrWsn7lSZV9OheFfVNVpxOGfa/PUD0etyUNHTw2YFqHk2uZZE/h6hyf7cIRIFkdFqLsqi0FiJSHYQlO4hJbCXoA/n8TvA/g9P5j7lp3DMzlbtnpnPPrCzumbGNuZGbeP+TszRbtfy8hEqjiXU1gaKBaEBxfKhs3CD0vhmjUml1D3O6b4AN9VbelBaYWqNpWsbrtEnPYKB3KI+v5xFe+b0rPUTRP1xZ3cCaKgtf1TdzZmBIzS8PIiGghMmSO/SnA1SBwe8lXqewosJGySH6+nAO+6is6FFweeSxv/P0C7vYktrKC6+eIzR2BzNDpC9Riiq3EYYCjcidzFOWrfY9q8cR6cyLTCQsRhSoN7Bgybc8vHQ9S5du5NFHNrJk8XoWLfiGBbHfEBuzluiYdURFbyAiciPhEVuYF76JWSEbmB32HSHR3xAR+zlLln7IN2v3UlnZjE9CU2liV2HzRB60AUPjqF+DdwiPc4iLFxp59fVdhMdsICg8EVmUpWEo+2duAohh2WpXTcSCdDYnlWFqGFZaDiPSBuEVpRsR7tWqPhMD0TtEzxAcze/m+U9/ZnbCD0yOv+jfwywA1MUS3X5zrRacq0EpQHwgvor74k1MXpNL7Ovn+WpfG6dNUONwUV5rQ0LVgrIG8krrx60LMJqxDbAZx2s9b3x/oqPRf2gcJVwWr7De3qegWGa2c7GwBtmmdzsnVS7I3pXLMstcRWOz3Q9EgaL2EI2pFX3XMu5W1+4/1HfcPiRk9ridVFp7+eqQmcdTalmY0oT0DAoQI9Nb/CGzhM32Cb3Cqz1F8QxbiExtISKlRQNxWytTX8vld4v28S+zU7ljTgb3zcrg3llZ3Dt7B/fOSmFK0Dpefv0Q+UVuhqSwYiwZl2LKFUAUKF5pAki9wEmvnvQ4e6kc6CWnpZ2PLM38Qaq+Kj/Y4p8kGWu2/meAuDIgfyhwVJXlchOvWRrZ3t5Jrc/HAB7cXik4CAy1SQuKrrDePBB93l6cwx6aGof58ot9PPn0t7z/8WFOnoe/fJhHxIIMZoUkMTfcEC0wCigGHAOPxvdu9mj8rExu+L0n/4a/WWHbmR2WxtwwWemZSmhYOuFhmYSHZRAWmkZYaDohYekEh0neM4t5IdsJCtlBWHQODy8/xEtv5PPhl9Ws3WhmW0oZx07UYbXKuS1AdF/hjQWCcewmqb1Evyitb5ih/n6OHq1iVUISodGbCYpIRjYPCggNk5B5tBdx1FMcyyHO9QMxelEG23dZcHT41Fppr1fvYtZbEMWTHbvW/odBRnVH98rmNrhc5eTP35wn9MkDTFVA1JMqk8YVUG4eiGp6JaFCCcw+lJDL7GdO89qWZr6/5KHaAdWN3ZTU2JFROmnQFphp4I0tjpLKs3h5Y98zXnOzHqWAViZitOWVN1JqsmNu6qbe3o9J1glI/lBWkf4CgdgLeWUYNh6mpQgQL+QWU1JWg6OlDZeMJHkG8UkrhmqGlcqlAcJbOHpk/tJJXdsQG443EJdqYXFSA7GpdiLS2oiUPSUCN394bHh/1zsKDKNSA4CY6CB8XRP3Pv0PfhOWxW9mJnPn7DTum53B/XOyuH/uDu6bncp9M79j2ep97N5vo0u22EpPhyTVFRA1NIyTfqKj5A7FZHugKOO0D/VyqrODbxqsvFbbzDPmZq1RKON0tTJF4iBeCicBHqKaRlHFlLHJE8MjlOqxYeo5sw2BoTLxCsVqmnmmysIbVSa2tLRyfniYDkZw+ffgjLWWGDkxCe1vEC6L5ygekqdPTXq4nS56ukdISz3OX/6aypbEc5jq4OvvSli4NJXZodKbKON8enWm1vrz6ySqfJgAzYCbcdRgkOKJXkKlF1GNwUK/Ti+hkk19sqVPcnG7mRWewyzZ+BeWpac/BMZh2wkO20lIxA5CI0QUYTuhkfJ1DsERmYTHpLMsbh9/fudntiRVcvh4JwXFPmrMUFfvxWF3MdgvOVdZReAct1dG3/yN812AOMyIGtHTXqKuyvhob+li58585i9ez7yIJIIi0vW2QH/uUOUPr5jokZll8ayVHJgquugc4yPLcvjxkE0JX/t8IypVNeLuDshtjl1z/8PwNtTqUe8AQy4wix7i1gJinzvENNm2F1/hD5tFKFZCZ8NTlOPVHuHVz5UyeXU5asY5Lo9JK07z+LvVbNzfQ7kN6lo8VDZ0UVzdSF75WMuN2q5XbuZSmVnlFiWcFu9OYClCDzfvJYrituxlkd8vc9ONFFbZqBSlG1u/mmOuNNspKDVzMb9CgW081G4812zA0Djqn9fb90T661JeCVXVFnp6elXuzOvuQ0yPQo3doYwb1PgcR+BddeyxTILIHdjR5yPltI1n0upYsrWO+Sk2wlPbiEhtHTXx+AR00TcweY0CYkoLkckthG2xMePDcn637Ef+bU4qv52RxF0zU7lvdjr3z83igSABYhp3T99M+OIcPvrqMg1WcImCgIKiUYiQk27s336tx1LJFY+sureTHTYbb5rreVKapGutLLcI1OzEme2sNjuIN/tl/gNG7+LksdlvAVMoK+TnVdFEV5VXmqwagqYmVtY0sbK6kZVVjbxSZWGzzc4Z5wCN+BiSuE/ArhrKjcZl4wK68d8z5vXLZyyjb05VvD11spikpIPs3ZuvpicytptYtTqDuaFrCQpP9k+uyAXtz4mF5WhNv7Ac5srjccuoAkFobObTR2N6Q8NQgzAo8nvmRe9nbtT3zAzL0VAUb1FC0ggBpFRw5bU6nyn7jOdF7CI4Yg8h0ZksS9jLt5sruJSvG7xV1VZK1CPCvxE8Lo9/Blm38sh7YERBakJk1AnQQPS5hv1zy/K1uJVgrray7ruTBEesY3aopBHEa5Y2m7FWm8AbgPydsn9ZNvAZ2wdl6mde1E6efvEIp053IC2XIqekb8hjN7XAc3E8EEVbzw1tvbAxs4SHXzrElBWn/SFzGQ8mlKkCya0DUaDpL8TEFfLgikuEPF/EmxvrOVUGNXaobh6k1GxVQBShB+0JWrhYXqtMPEQDiLJS4KLsQfFDUV57ffOPBMpooITllc2UmFupaeqhwT6Iqb6TkspGcouquZhf/ouBePEqL1GAKOtJi8kvKsNiaaS/vx+vrLJU/WyBIDQe3/zFpsJSzzBdQ7DjvJ2X0s0s2VTNgmQr4antRCgothGZ2kpUausNYWjA0gBiVFILYRutPPjnXP59yR7+fVYK/zlDiimp3DdLvMR07p2dwb2z07hnRhJTgjNY8dQuzuf10d3jYcQz4l/GpHNuGvbXh8igd4hWr5OzDivfmWt52VTPqjqbguETfiCuMjtIMDsUGHV7jfYI48w2xBQQTVZ9VFC0s8JsUxVkqSJLaCye4SpTE3GmBhKq61lTVsvLVY2sbW7hZ5cLi89J14ibEVEVMDxd1Tt5Ex7hVeCXZmMNRK94zCNQVSnV2jzOnK5Sm+6OHXfw6ut7CAr90u8RiVfnB5/aMSx7hmXdgMj/C6iuhMN4EBqe4tVA3M3ssBy/7WRWWBazRPxAQtEI3c4yK0xydeJJyv9DvK7tand0aNQOlsXvJX2nlep6lPPkcftUU7MBFV0hHv8Za7EGA4riHWpHQGbbPcMyySTVaMN0/8/Z05W8+fYeZgd/x+xQEb+Qf4fxd8t7M/4mIMIOwQFAlLac2WGZBEdn8fbfLlJYKGGypHJc1y30jAJReYoeUSIZoXcIsg9Uk/DWcSYtP8YD8UU8mFCCtM+omeZf4CGOAjG+RI31TVtdwPJ3ili/u5X8Oqi2QnVDO6WmZgoqxZtr4JIo4JTXcdEvCaYKI2rO2dizMrZr5VpAVNBUqwM0DC+Ld1jjoKKhE5O1D3NzH2U1LeSVWLiYX+n3EG99p4p4htcDYlFJJY2NVt1yowoq2kMc8wh/ARD9w/NDbjhc2snbuyw8sr6EhUlNRKR2ECnyXLcAwkAgRqW0qGJK+HfN3PXSaf41Npt/n5nCnTNTVEHlvlniJaYpGAoQ5fH9szMIXZBIclYVJovMWRu5RD3VMVZtNKB/9bHPO0i9c4CfGix8Wl7Bc1W1rLBo7/AJi121xKyo1eKtIuAq3qJhq8RjFDPZtCkPUrxIByvMDpYr03CUSZRVpgbiayw8U2ni7ep6Nlm7ODnkpQ7oGfEw7HOr1hHVfDfaUG5M1egQzwDB9Y/G3ynzwoOqt6+tpRNzTSMWs0MBsqCgm48/PURoxOcER8iMs6HWIhAQwVMBorYxMIx5SxoQgZDQYbQBxMDKdXBUNguWHmDJsgPMX5rDvKhkZocmMis4hTmh6YRGibe1naDQdOaFpjEvLIno+ck8+8JPJKZWqxC/T1oMfeB2OfE4tZLRlXtljPfEAKL+Wt4LOddlDnxATcqI7JgIOegGcdTSp+wdF3jyqVTmhm7xw1/eB+M90UDU6jZSgJLKuQaipBNmh0njtnjW6UQtymL9ZhNms+6llJB87N8h4B7/OY4Hogh4uj04PXBSKjxfnGPSioPcn5DPgwkailrk4dZDZg3EMh02x5fzYFwxoc9d4NmPi9l71kOhBSzWXrVEvsRkI7+qiUsVDVwo1yYeoYZePbmlDcr08inj+Ym9RAOI8tq8iiYKa+yU1XdQ1dxDVVMPZeZ28sr0PhWtlv3L9jLfCIilFTXY7S24XLLXV8a/9IL5MSAaJ4px8Yy/yxonV+BRt3504/X5uFDXz2cHG3j0uzwWJTUSkdpFVGq76iGMSZFeQgfRKS03ZQLDKKkub20h/OtGfvfkcf4lcge/nSntNqncKx6iHGelcq/kD+ekc9/sTO6dmcXUeZt55c3DnDrbTo+s6PDJldOhJgPG+tEM+F997PEOYnYPsN/awMdV1TxTZWa5uZlltTYet9h53OLgiVoHy/7PTpyVCogSOotMl4DQbwYYlRfpYJW5hZXmVlaY2lhubmG5WRqvm4lT4Xgtb9TVk+jo4Gy/h6YR6B8RkPtDfjWiZkzYXHG8ol0k8LO5+rH/8xXtPY+ToYF+erq66JXdnyNgsQyxddtpYhd8SUhkEkHhewkK3zMqUGAIFYwdx3uIGnyBEBz/WEJJ2ToXLDnByCxWrjnGG38p4KMvyvnD6ydZ/cwhnlh5gEce28djT/zIw0v28sgje1m58iDPPHOYd989zfYdtVTX+NSaEc/ICB6PS+0HEk9PQuLAv1nNI/v3OavHxhSM0diuilKDykO0NTbR0mxlsEfCWGioc/HVlwd5+JGNiDJ2UIS8D3sCbhLac1VLugSECoZjQJzjB2JwVDpLl+ew78duHA45FyWmHwvjNQyNAp+AUe1UGX9S+uREAMprOvksqYQZ8QeYlHCRSQkFykPUXuKtAtEfMieUMXl1BbJm4IG4EqbEnSX02Z/5y5YGfrrsobIJTFYXFfVdFAsUK5u4LJ6iCo8NnURdhZbF9Xp5faC3aDweyy8KEAWGslhKtu3J7662DlLe2E9hTTsXixs5X1CrNu5J3u9croS5N84ZXvmaGwGxymShvaMTr9eNTyYevP5k++iJ9EuB2MPIiI9yh4stJ5tZueESSxLriJRF8KntfgAaMHQo0AnsbmSRSXaiN9kI+byW3646xP8Oz+I/Z6Ry9ww/EGekcI/YzBTun5upQud7Zqbz4OxNhC3YzLY0E3VN4PaN4PH2qPlfI199veOgd5BW3zB5XW1kNjTwXpWJP1RZeF7C2pomJce1SkbrpCKsFsnbWW2S/cljnqHhMUqOMcGkLb7GSnxNM2uqG3mmpoGXTPX82Wzhk/p6Mjo6uOj20gx0+WDILXkmWSQlo2hXQHDc1/oiCgTBtR8boaKorOhJJZlW8jilmDRCR7uXffsKeXzZt4RFb2Wu2o7n9w5Hw2MDgoFHw1saD8BAQGoY5hCi8oA7CQpNI/7JE6zfbOdyAZw6A3u+72BLYg2ff3GRd/92gnfeOcJHH55my6ZKvt9rp7jQi0ylSN+K5Ay9omQk57ECvEBeA9EA4YTHUSjKa4fwDHvpaB3mx+9P8/M/Cmlq6FZ5vqNHmvj977MJi1pPcGQWc8J2Mde/KVB5yRHZSAHFAKI+ilcrz8t7s1vlXqMWZPDcSz+RXwD96uYsosWBn5nhHRrHiYDolzu3O4ZI+6GBqBcOMyXhDJPic1UOUecRBXC3UmWWNabSoK1NoPpAfAkPrrrMlFXniHzhDB+lNHI030WVDaqanFTWtyOeYp7sZVbSYHo1qXiJsqs5r0Ks4SrLrZBVBPVcLLVwsUT/jMCwwtJCbVMXFvsQJruHM8UtHD5bw4kL1ZzNN3Eur0LJ/Eu/4Pm8W4filUC8kF/O+fxSzuUVcyGviLqGJvr6+vB6XX4gyklkfBBy/AVA9A/We70eGntgb24bz225xNJtJsJT2ohIaSVSiiPi8aU4tF0HhpHJDgSEYgLM2E12Qj8182+P/8D/Dsngzhmp3DNDe4fKQ5wp/YjaJK8ozdr3zNjEvdP+zrN/OMq+w430OkU/UKrHkkPSN1+fUs8WBW0jsT12U5bXOX3DdLoGKenv58e2DtbXNvJBdR2vVtbxXIWFp6rrWVVdh8war6luZnW1lYQaK3EmmxJ0XVVjRSy+2qq+t7qqkdWVFlZX1PBceRV/rjbz92YbOzu7ODU4QKnTiU3aa0bA6fXi9riUnLxUQG8XEHU3gU6T6MKC7jCQz12ESuWyu3SxjldezSA8eiOzQ7arHjopZkiDsS6iBILQeHxtIGpoaFDo/c+7CA7PJjg8i4iYLJ5/6RA7d9loaUOpFEl3gN2BEn6oq3djbZaRPBjs08LS4r1p4Q7xnq+4ofsFcSe6IYyH4zAjksfzjGC3DnHghzKef/Zrtmw+RnFJD41N8O57x3jksRRCVHVZCkvaO9QpA9lUKAu6JgCiwFByn7JiNXQnS5/YxRdf5mG36fqeFCHHIjLDozWuQf31VSGzkFvmF4f6fRw+10n8O2eYmfAPHoq7oHQRHzS0EW8ViAnF/rC7mAcSSrTJjPOqIqbFX+SJN/P4JKWOI3kuKprAbO2nuqFLbcYrrbFSUNmoCy0COrWmtHYCEYh6Lpf7TcBZ0UBRjZUySwvm5m4a7QOYmoY4camZ7T+Vk32okH9cMnMmr1q12kjx43xukWqTudIDvNHX44AohZn8Ms7llXA2t4hLhSU02ewMDg3g9TpH76yST9L9eHKUD0TAcAshswo/+vB5PXQOw+mqbt7eXsTSzWWEJzmI9ENRgVFgl2y/sfmBGJ3sYP4mO2Efm/i3pfv4TXA6d01P5T4B4igU07l3ZgZ3z0jj7hnJ3DVzG3fP2ModkzcwLyaTtz48xoVSG/0CGZ9ARuZGNQgngqH8/bopWzd1d7mGqXW6uDQwzA/d/Wxr7eFzaxtvN9p52dLIi6ZGXjZZeanGynPVzTxZ3ciaqgZWCyirGni2qokXa5r5fXUjr1saeKe5ka9abGT0dHNkeIgStxuRFxuQLYBSEZdBXNXKpMcKpTcyEIjq2viFHqIAUdIkgSYpBNXKIz2bXqg1tfLd+n8Qs2gDs0P1Rrl5kQK+a3mKAsMbADF8px+CuigjYAwJ30FoeDqLlyTyx1eyOXS4DptNQmAtjeV2exC9REmfqV5CqXN4Jdz0DzOr0UW9FuJaepAqVeITAA0gjdaqAKi6Iry4hr1UVTWzfft5fv9yGrGxn/LxpyfY92MzOXtbWRGfTUSMtB5lMEd6JiMkfbBb7VXWYDeAKF6xziGO5kgFiGG7mRu2k6efPcjePTY1Y60LKnKNyU1YrjEDiOOPEwBRxoyc+Dw+8quG+evGUkKeOsyUuNM8EF+KAuJo683NtNzo10wKAKJ4iMrTFHVtUd6Oy2XOmjM8/udcPkisZ/95J7kmH5XNUGtzUdPUS7mlTcEtv7KByxV1XJb2HKlGiwcZYOI1FlY3U2SyKRBWNXZSI3C1esg3uTh4zsE3KRdYv72Q3UcqOJNXy9lcXVm+mFeivETpG7wRAK/8vgFEKaxIpVq+fy63hHO5xRRX1NDS3oHTNTQu1BgDop7QuHUgaukl2ZI2KEuMmvr49mANyzYXE7HNRlRyKxHJbYQntxEh43d+2MkxIsk2Zok2IsQCnotKcjB/o42wD6v5tyV7+c28dO4WIE5P5f4Zadw3Uyyde2ek+4Gox/numpHInVO3cO+MTSxYlsxXm05T3eikX+6z0ntpAHF0vnXMO1Tekr9QJP19Iv/VM+JTkyI1Xsh1+jjRP8y+7l4y2tpItbeQamsjydrKpiY76xqsrK1v4pu6Rr6tb2Zjo43E5hZSmx1kt7XxQ28XPw8PUDLiwYKPNnwMj3jxSRpDwVAqkeuw1doAACAASURBVGPjhVcDcDwgpcfyWhfWlc9rIBpK4UbOTdp45DMUhXAfHW09HD5aw/L4ZOZFiUR+uqqm6jDwSi/RgOG1gShhs/YS5TUGWCWslHxbJqHhW5m/YBNvvHGAffvqsFh8uhAmOVT5z+fD55FuAQGhkT4QKbc+Lazq35Nz5d8qX48HouyU8eF2+uhod5GXZ2XbtlO8+GIa4ZF/Z17o17z0yiE++OwSr755iqiFqSp3ODc8Uws4SDElXLxbgbreZW3cCIzQWacI9Hshkz7hsTt56y+nKCxwqnuaAHHEExiFGSC8oYco/nEfIz4ndY4R0g+1sOjlw0yPP8H9ceLlGesEbh6G0pdoAFGFzfF68b3seJ4swrNxhUxedZnpcReIePZnXv2mksxjfVyohmobWFrcmG39VDd1UtHQSonFTpHZSqHJSpEymwKgQLDYZKeyoR2TtYdaRx8WRx+yt+V85TAZR1p4+5szPPuX/WzINnHsUgvnCsyczy3hYl6pMnkscLsSeDf6+lpAvFhQRm2jlZ7+fjxe5xVAFBDKXVTfSW8ViCOixScCl7Ibw+fD1jnA7ssOnkwsJXqLlajEFsKT2wlTUGwh4kog+kEYvs1K2DYr4YliNmXy2tj1VkLfq+Q3i3bzGxnXU0BM00Cckca9M6TdRrxDsVTuUpbCndOTuWv6NiYFrSP28S2k76qmrtGYRPF7iFcB0bhrGx6ywGMQt8fJsMfNgNdHrw86ZD8vUD/iodbjwux2UeVyUjI8SP7QAHmD/eQO9JE/2K+eq3INY3YO0ehx4vC5lKZh34iLQRHGUAuGpMfQP+gvHrsfiOId3l4gjol46BuhVKuN8UZp5RlW2xjNtQP86e0fiFyczswQ0f6T/rux6YuxPjwDiNfOHY7lEaU3T1pqtKnnw6X5OoPQsFRCQzfx4ovfk5VZTX0dDMhUmzRVy4jbiOHZy7mmTQNRP56ozeZKwQTpvXQOebFa+zh50sy77+7m8cc3EhqxlqDQrWqD3sLHdrN4+S7CF2UwL0q8w0z/nhmpnOv0gHiHAkR5D/RzRi5Rh8/aW5QG8zQeWb6P9ZuKaW3Rjr/sZdGeoRGFCRANGBrHCXKI4lKKcKKEN9KPeLZ0mGffO0HwU8e4f1WB8hLH5ppvHooCRG3yM6KWI4KzZWr/ilo3ICsH4oqZHn+BeWuOs/zNs7y3pYJdJ9u5XOOl3CpjfiOYWryYW71UO5xU2YaoHrVhqm1Oqu0uzK0jmNug0j5CrmmQPaeaeHfjRZb96RBLXtrFh1tLyD7Rzsm8Vs5cruSCCpMFhLIu9Na9Q4GlANEw7SHK7ykhr7gCW1sHA8PaO5SxIaky60ZV+SAEhnLxyeMxGEx0173qOblDD3chYPR5nfQPDHKxfpDXs8pZsrWe2G1WolM7CE/pICK5lUgJowOgaDxW3uGol2hXQJTvxa5vJuRvFfxm0S7+dW4qd01L4d5pqdw7XWAo3mEgENO4a4a2O6en+qG4ngfmrOWx+FS25xRhbe5SFVWvWhwkJ6Rxx5absF9hWyXnDa9RPCgBh7RkiN6eB4/bjVOqtN5hBr1ORBGnz+ui2+ek4wqT5/rkNZ5hhmX/jIhpqFYPUasxRu60iKl4pEbzsOG5j7XbXOkZ+r9Wn5nhaVz/GPi7R3+/0ojUUJTQUyaXJI+XmFbAstU7mBO2Uen/jQHR8PQ0CMaAd30oav3AncyOlHYUAYx+veQTQ8KyCZqXSkTEVlatyuTTT47zjxP12O0yFqocO9Va43aK4IJIc/Xjc0q7zIDq59O7gfSUkf4bxcOW1hYpYIyoPWPtLQOcOlXBN2v3s/rJ74iO+YKQ0HXMC92GrEgNid7NvOidzI3OJCg6i7mRsnBeT9vo5mv9dxveocBwFIiSS/TnExUQw9OYFbyJV944w9Hjbcqx9TrdSPP31deXAULjqICoL0KV9FXKsXIHFyD2MDjso8Hh5ZvUPJa8coIHV11Soq8PrirkIf+KgKunUq4NSQGifr00aQsMDcGIsZ+ZEpfH1FXnmPvkWRb84SxPvp/Le1tr2LzPzp4zPZwo8XC+BvLroagJipugpFk/zquH86YRjpUMs+tMJxv3NfG3rWU888E5Frx0iIjnjrH63dOkHnJw+FILP+c3ci5XJlOk8CEjdrfqGUporE3D0D+mp0LmUi4XllFZU0tPn6zeHEZgKKIOgRfH2F3KAIR8Hte/uEa/r9SopZ9LgCIX+yCWTh/rDtfxZHINizbVKACGJbcTkdSKNFqLCRjFA4xItBM5ajYiEw2zE53oYP4GK+EfVvPvS7/nX+el8Z/TU1TYfM/0dO6ZnsE9M9K1hzg9VeUXJcc4ZincNW0Ld09fz7Tgb1nzfCZJaRcx1Q5o/T2vV9+61eibVkmWSqVPjbjJTVnv+NDvj5zMIkzqRO1ncYuMv3iP4uU5cXlFq3CYId+Q34YVMJ1eJy5pDfE41Zy0et/Fqw6U75IQXWk2GpNDWhdv3MoDVR01wDl2HP0cbuLzGvvM5bPVF6Aa+wuUDvMMIsuULua288ZffyBiwQbmhqeqiqmMqo3KXam8oAbBrUJRA0YDUYoTAsWg0EzmhSYRGZ3Eo48n8/tXctiw+RzHTjRQYx5U+5sHJc0pjfYjEk9r2WmVahBpI52g00KYPp9KxfZ0eqgz9XDmpJlN64/x+us7eGLlViJi1jEvbD3B4UlK+ixIhCwixYPdwZyIMRjqkFh7tqPwG1UB8gNRmrVl33JktrLgiJ2ERKYyf1ESW7aZqTVpKboR56BWXBp1OAKvrzEYyuc5qnYz5uZKk2W32jng87oYHHRz9IyFFz46x/Q1F3koPp+H4gpUmKuhOAazW4HjtV+rYfmgwHJVLtPizxP54iVW/KWQV74u56OUOr7JbmTbj3bSjzjIPGYl67iN1CM2th5o5ts9DfwtuYoX/57P4+9cJPzFc0yPP8XUuFPEvlbBX5Ps7L/Yx8+F9ZwtqFGhseQOf0neUMMwsG+xRFWWpaAileqiskqarKJuMzgaKktlWS6OW7mYrvXa0QtKLnB/xblj0MePBe38eXslSzcUE7m1kVDJISa1EZ3YqkyUryMSHcoiEx1EbhMwahhGJdoUDGMTW1i40U7kp2Z++8QP/EtIOr+VdQEKehncPT2Tu6fLUcb2AkGoPUnxJu+alsyd05K4e9pGpgWvY8XT29mcnEtxaRs9su9WsvhqM58WdJDpHZHn1yatOjpsNpRxZOZ1RLwqBTEBm0iLycnuP+EV7PT6Af09eb2h5CyepniGhmyXfs90msI/OaEmKMa08dTvuE2f1bU+w8Dn5aYmtZ22dvESz7FyTSpzQreparPAUDQAZWJDPKIQA4qjogbX9xKvC04ZcQvfzrwwmWNOJjhyM4+tyOC1Nw+wfstl9v9UzblL9ZRV1mOua8bmaKOlrZ329g46Ozvp7GjHbrfS0GCmutpCQZ6ZIwdLSN56mnff2suyRzcRGbWRuWEpzA3LUGtXDeUdvVwr8N9upAJ0aDx+IueK76n3YjshkTsJi8pRUIyITuHFF3/g5IleBnoAlw9EgfsmVj3IZzEKxLEPRkt4yzC6Lq64qLMO8nlyCdEvn2Nq3BmtkagKK7cbhvL7pNAieUrRXyxWUHxoxRmmrDjOzFUHmbfmIFHPHWbxH4/x2J9OsPzN46x46ziP/ekoi185TPSLB5m7Zj9TVu5l0vKDTF55RlnIs+d57ot60o45OZbfxdkiE+fU/mXx6kp+UauN4R3qo4aggFCAeKmgnCpTLd3dXXpUT/VtGa02txGIfg/HaNLud3oosbn45scq4jflEbPZTHhiC5GJrURtayNqW0sAAMc8RPEWJXQWjzFKvMOkVhZtaSHqCwv/sfxHDcRpSdwxTYCXzt3TMrl7Wjp3ydeBQJyWwp3KBIba7pq2lbunrmPSnLXEPLKeT748wvmLVrUfVy0L90pzm1TfB8ZVYTUQx3Jv2rMy8m7+1QSipKN2tgjsjD0gAj3ZqCb7XIa0KU9Mh+iyelPPFfeq1NCIb5ARr4htGKkMHT6PXRO35/O6md8nxUxxwi5crue9D39iXvg65sgOYikw+D0k7dndmod4XSCq4otUbiUUz1I5PRGZmBO6lrCYr3li1WZeeWM7H32+l3UbD7Ej5xI//lTC8RMmfv65nqNHq8nOPs+WLQf48ss9vP1WBk+uXs/ihV8SHvI5IcHfEhy6jSABrl+hxtgyePW/y0gLXAlE+Xo8EKXYFByRw7ywHYRGZSOjhQsXp7BxY5HyDlWLkNP9zwJRPnwdwkgY7XH2MOCEvf+w8eyHuUxf8RMPrTzPgwKsUdHY2wnGUlVokWLL5ATZ/VzI5Ph8psTnKuWdqfHnmZZwnmnxZ5ge/zOzEk4ye/VJZiWcYkbCKabF/8yUuJ+ZHH+WKfGXmRJXwNSV51jxdhFfZto5lOvkZL6Vs9IWk6/zfAIxVRXOK+fcLSvdjIXNBhjPXS6hsLSaJqsdt4R66mKXRtbbDUS/2IDyfAQG3bjcLjpc8FOBnTd3lBG7toSITc1EbhUQthO5TcBoIyqxmchEqwqbxVsMT5TcobawLVYit9hYsLmFmG8auWv1UX4TnsnvpiVx19RUBcJ7RoFoAPDKYyAQk7hzqkBxMw/MWktQ1Df84Y29ZO8pp67BqcJEJWE/Iu9Rv+pZlH5Etcje36oi56LOAYlX6M//qRyc5PPE+5P3QtpYZG7aMPECx1IQKi0kohqeHrzSLO6VvtABRkaGdYOdVJxlzlwp7/zXQNEnqRWPl5bWPnbvLeXx5VsJDt+sQme9WElacHSlWCqsVwPllzwXCBr5ecnfZRIUkca8CPEYtxAavZ6I2LXELFzLksc28MSKLayMS2ZVXBqrVqXx6KObWbDwa6KiviImeh2REd8REb6ZiIhkIiIyCIsUT05Py8yLNP5/E/1brwfEQEiK2MQuQiJ3Mzd0O3OD04iK3cGLLx8gP9+lCkPqZis7R1XK4+ZuahN4iGM/KHkcr6tLVTDL6z1syK5nvjRqrzzF/XGyq1kKI1fnAa8dDt8sOK+chCnVI38JlTwQX8H9cZXcF1fBA6vKeEhZKZNWaZNQ+0Ep2qyuYHJCBVPiywl9tpC3NzSQfbSNk3ltnM6VRuwizucXcz5fh7nnFCAr/EDUbTM3qiyP/778jOQjy7mUX0ZNbSOdXd14pclX8oZivwoQ5aI3QNClKrNDXqiw9rHlpJVlG8uI2dBA9GY7Eds6FBAjt1mJ2tZIlB+I4QqIDsL8x3AJobfaWbC1lYUbHDz00ln+Izqb/5yaxN1TU7lnWjoaiGncNVVAOAa/CR9PTeXOKWncMTmdO6dsU95iUMxWVj+fxRdrj/DTkWLMlhb6+3txS37Q7cTtlqS+jDhKsUE06/qVSZpAQlnVS6Gqw34lGnUT70Vr3Mlyj27/Y+NnJT8pBa0BPAJdbx8u7wADw/1Y7TaqqmqoNdXR3dWNR8mz/dcAUbxIKa64XUOUlrbx5d9PsnDJFoIjk5T6jKFAoyuqt2s7nwEoge1uggQykXuU4s3s0BzmhGYzN2yHCnfnhqQwLyyZ0MhUwiOzCI/YSURkDmEScgenMWduCsEhGYSGbic0PJuwiD2EikXuJjRyF8GRAnPj//fPAXFehPQmiiDGDoLD0kh48gip6XW0tuqWSWTNqkiUK7Uio7VtjG8TeewBQDTuwNIjZZgktntUn5YIx54p6uWtb3IJe/oYU+PzmJIg3pteSG9AUFWMb0oS7NpwVHud1da+gCKMUtopV57p/aLALfPQ8WVMFpN8Y5yehnlQeiXFe11dydTVJcx5soi4d2vYuKeNYxdbOZ3fqBqxpWlaPMQxk0bqX+IhBhZiyrmYX0ZxhQl7SztDQwJCv8ch4dhtBuLYByrekQaj5CfdXjedg26OV/bx5o4aHltfwYIN9URubSdiaxsRWyVvaNOh8zYHEVeZBuL8ba0s2NLGrLeL+d3i7/n3aUn8bkqyCpnvmZrB3VMnAOLUZO68ylK4c0oKd05O4Y7JW/nPyeu5e9q3TAn+mqgl63nhtWw2bDvH4RMmSsrbsdqH6ev14RQpKRmjU7Nibr2bQGZRlTcoeUdd4NDvQwAMvQLEHkZkXagoIo/Ivk0PPq8Pl8vHwJCXlk5ROermQn4zO3Zf5Otv95CUcpSSkiaGh6Qv8b8KiDo6k61zXR0ufj7dwMt/yCB20WZ//m0HqhBhrCr1h6D/nKdoACqHIGkEVyYTH7uYJUAcFZrIZk64jNKlK83GeeFZKlw1mqUFTHNDJBfpbwZXo4KGJyfeXI4Cog59J4KhPHcLHmL4bkLC9zAvJJMlj+zgk8/yKS2FYdXzKusL/L2T0l51kx0BVwBRJ5cNeR49aiV5liE1F93W5eXg2Q7WvHOW4KcvMj3+ElMkpE2QMLcUgaFMnhhwvB1HA7DS6qMbuku5P76E++X/F1/KZGUarqrXMb6U++NEobuCGWsKiX65iA9SOtl9spuzBfWcF0XsgirO5ZersPlMfpk/fA4E260/Nmagc4sqqGuy0TcgUylutVVOjej9CkDUoV1gy4O+kanCjc+Nqd1H+uk2ntlYxJLvqonY1ErY5jbCt7YSsa1FWaTAMcAittoJ32IjYquNqK0tRG9pJfTTWu5adpB/nZnMbyYncsfUNO6ems5dgUAMgOAdU5IItDunJHGX2ORE7py8jTumbOWOqVu4Y+oG7py2jvtnfU3w/PXEP5fFZ1+f5MAhMxUVXbQ43PR0uxke8uJxSZOwV7V0SAEQgZ3yHvVGO+mK8Hm68Hm6GZFw2C2entzQpUlYJi58SrS0tc1JTV0f/zjXQFJWHm++d4BHV25gTuhbxD+5kZ8OVtHfN6JmcyfqsRu7CV3f0/jlr5OOAfnb5Fr00tnhIjnlJPGrkwkKTWRuaDpzw/xyWKrIcru9RD+oJKyVpVdKSHYvcyL2MFtZDnMid6iFVbpiLWGsqNCIiQiDfiye7Gh7TGQOMnEjofL1w+VbAKJq1N5NaPhewsIyeO3V4xw82KI6GKQwJV0CWn3Hr8L9zwJRq7EYgBQ3XkI/L7ZO2LCzjkdfO8OMlceYlpCnpk0e8kPx5iAoYbZh1/YUA3+XwE+WVRlQfEABUXKM2qQAo4AoY4FxpTywqpjg5/J46qNqMo+5OZbbzYXCai4WlnOhoIJz+RWczS/nnwXiuVyZSNGiEJeLq6iqbaCrtw+nW4oELpWPUr1bEgrdZg/xaiDKRer3Fr2DdA9DUTN8/P+VdyZeUV3ZGv8z3lqvpyQCahJlVuPI7BhNOpOJgolmMHltTEdb0510BjWdTkejIlBMgjjPiYnGGOeRWRAEAUEGGRVF5qqi4PfePudeqnBKjEbT/VzrrFtVUIB17/nu3vv79rc3FRARfZaxq6oIialTgBgc10BwbB0hllrCZMXWEhpbR6g61mhQVM/rCf2yCq9Xj/BI0EZ+65eA+y0A0RUEXR9rQExgoIChAsREPPxXGyuRAUNi8RxpYWhQNAHjlvP8tGgWLNxIVPQBvt6Vy6nUCs6fb6ahoZuWZpR/oEhA1IRMY0qmdJd193Qr5x97l4OOTjutrTauNnVSdfEaeXk1HDhYSPK6E3z46U5mzUlm8gtRDA/+gkd9/saQUX9nwfvfUFTSreynfj6g3S1QGiUQFd12Ig7bZWVX+WLpfp56JokRY6IZFZTcS07cXWR4qyjN2Q4n7toChhoQdzAidCsjwjYzIsz0T9SgKcDpXGIuK0vkMaZ0xoxC5Xir33sHgCiESvAmQkI3M/WFHWzeVK16lsV8QiwsnZpDnUn81PN5XYRopsoif+jbZtSlNrSV9i7ILLbxacIZprx9EL/px1VkqMcLnNHRogFSAlauoKYfm1Gd69EJbLd6j2afdVRogqP8PA2IklrnIqm2Oobn4BeRxXMLc/hiQx3fnmrjSFY9qdmFpGaL6YKkxgKKZ11SZiFWzPVTI8SznMjQpEpqdgH5xRXUX7lGp/SBCpGi0jstaFU6tHsMiPoki47K3IQGGCoZTju2LrjcCnuyLrNw/TmmRBYzPrqSUEsNgbHihi2AWKOeyzHYUkuwpYYQSzWhsdWExNaq7xkfU88T87LxmPwV/+UXzyNDJFXWEeIAs4bov7pPVOgKiM7HCfT3k5VIf39j+UnEGKsIl8eHxDB46Ap8RywjcNwqpjwfT/ira3hnwU4++ccBVkSnkbQuhx27CvlufxEHj5Zx9FQ5x9MrOZ5ewbG0cg6fLGP/kfN8vSeP9VsyiEs6xhcr9vH+x1/x1twNvDAjkZDJUQwJWsHgJz5ngPcS3B5byMzX1/DVriJa5SNUs4XNz/R+HzUTLnVhqZvKmNr2dgeHj1Tw94/3ETJuperuEGZV7LxuDy63A57bfU0AUcTRToCSiE9IHXHU1oAoIm8BPBP8tMO2jgyd0aEJirdPk13/lp+aMosbznqefW4bq1YVk5+vb5RicN6t3IqMyPA2phPOfeM8xy6AqF9UG9eYFdw7M1gK0SKUdbQgPmhNVjiQWcPfovMZ89opDYjSadILUGfwU49vJFx0ipuPX4SsPGPp79fvMSM+VzA1o0lzHrQ+6p+Vi29Ejq5lqt+Zg294FkFv5jF3WTHbjjRxMLOW41kXVH1PanxCfAgBokmRPINYEemNKb/RrHNf0uQmIJkhgFig5rDkFl6goraRNqsde7ed7m7dF2tq55Rk5B4DotIhSkpoSEp0HdHowhBmTUwLrA4qGrpIkNGyyReYtKqEsJgqF0CsVgAYbKkm0FJDkALGakIt1Wp8QFCc+CJeIvCTYgaFH+C/nkjiD0OS6e+3hgFClgggChj+CCAKIdO7elNqiRhjGeAbxwCfBAZ6JzHQJ4n+3gkM8Evg0SEWBg1bxZDAWMaMT2LcHzfwzPRNzJi9hdnvbmXuX3cw78OdvLfoa95bvIsFn3zFux/s4O33tvHqnA28ODOJKVNjCZsSzciwSPxGrWDQsEj6+1lw80mg3+BI3AcvU1Pn4lfnUl7eqbrVHDax/3JukgfzWMikZlUGEEOQmjoru3aX8NacLYSNj1fRkYiq7x3T7ApKGhCli8S02BJwNFv/pNtFGbAaVls6TXaVxbhGgyYz/FPB2wREIXjM997suIk/Pr+dDz9OJzMLmq7prhqHzHAxSBTtKK+B8aeewxsAUd7YFxQNfZayvG9W3QHixN3YDrtTW3htUSZjZh5haPhJfKV7ZXouvuFn8I/IU8svIhdZinzpBcx8/MKFEDGjRDPSuxkYCjDeChDl+3O0SFz6pSPO4heRzdCIk0z/qITlm+s5mN3M0axyjmcWu/Qn66jOCXhmZGgebwQ/sy3PPCp37Ix8TmXkk5VTRMXFSzS3WRUjr6JDNdlLemRliUmqAOS9ld3IueoFRZUqS3gjy0gTxEzC2ok4aqeW21n2fS3TorKZHF1MaGyNTpMtdb2RoUSHAowhMU5ADIyTVLqescuqGDI3g9+EbuA3Qq4IcPkKWbJa1QclLTaXMyLsW0v0MIDQQ+qQ8tg3Hg+fWAb4CCAmMsBbwDCJ/j7JePgm4aFS7BjlnjPAbxUD/SIZ4LeUAb5LGDRsMZ4jFuE54iP8AhbjF7AEn9GLGTz8YwYN+5jHhnzEQP9PGOC7mAG+n9Hf+194eC3DzSuSfl4W3LwT6O/9JX4jlrL4s1PknZWeXak9dRutZw8WEBVh1N2q6qF2WyvSCVd10cr2Hed4+eU1jB+/msCQJO1s3Tt0SgOH7uyQx5rRvXPQ1CmzCYZyFEA0u1zMdjr9e1ydeFyB0AQ2VzBz/boZfbq+pt8TELZVzXAx+5YVMCoLNDF3kMg4hXGTUpi/cD+HD7fQKpe7OPUoWzFtzqH2nbgI3W2EaCKpBkUZJaiXfi6O2qIP68Tu6KGqEb492cIrfztE4CsH8HlJBkjl4B+ez5CIfIaEn2FoeA5DVAqr/RN1iiuRoQZEV9mOM13Wqa8SZvem3SYoytGMFOX7svEOP433DJn5UoSMJgh9M5WPVjew41g7R7LqOJ5RxInMwl4WWafKki47V2+0eIv2PfE31CCYR1pGPukZ+WRk5HP6dCFVVfW0tsjgdQcOu2ws3Z6nhcTaJMAUFZuf7y9zNMDQAEr1O20d2OzdXJYB6aUdLN5xjhejchkfVc7YGAG/eoJjGlRtMVSAUK2LhFguEmSpZkysRI21jI+uY9THBfSfupvfymwVv2QG+iXxqO9qHvNN5FFZBnkiwHhTUBQgdF0+Aohx9JelACoRD+9EPHxW465WAu4+cQo0BTg9fCx4+ETh7rMCD58v8fBdhofvF3r5LMPDZznu3stw9/4Cd+9/4e69FDevL3H3WoG7VyTunlG4eUbz8KBV/G7gMvxHL2fuX74lJ6+blhaRIsqUOGkTdC1DPABgFALOpY1RpEIyf9tq7aautpsNa3N549WNhIREMTooGRm3KZ6Jkr4qyYwiNHSEpf0PtevN3abX1wOijuBcAdEV/G712ARAExD7fp+IrUWio51tzO/VTj+jgrYwKjCZwBAL8+b/wO49NbRKyVWc2+w9St4meKV7xX/eObxphGhuVl2014irf4lEj+JpJ5KGVjqsPVQ2ONi8t5LZn2Qx6pUsfKZm4j8tF//peQydnsuw8ByGhZ/GX6W1ktpKVGcCoowU0IOrzBqkrjMK0N3KgPY6QJyRjXeEAGIBXjNKGD4ri5mLC7DsusK+9GaOZ5YZPcoCfppIETJFhNn6qAmWHxNkq8gwI5+0jDzS0/PIyjzL2bxiqirEb60Nh1UEoDbDrME8GXK8n4B4883rECcVBzS0dHGouJ33t5XybMx5wlaUEhxVR1DMZQWMYTHVyBIhtwBioAGIASqarCNwWRlD30nn4ZANuPkLaCXwmO9qHvdNVKCogNGIFG8ARN9EBiiWWZhmvfr7SJQW32d5+AgIypIo9OZLYi3JKAAAGS1JREFUoju94unnHUc/rzj6eSbSzzNZH+W5Vwz9vGLp5xWPm1c87l4JeHgl4O5p4fcDl+I1wsLsd3az71AD4uKvfP+6JNSQHeYUc5t74X4dVeChAFBAUHsoig5TSM4e6eSxQWWplQ3Jp3lr9jYCg4V53mCM3jT0g8aIUfFR7AXEeyLPcU2rXcDqtqltX8DTICrvvRUgblWAGKisviTClfdvZnTwZsYEbWbchLXMn7+fb3bVcfH/zGS7Zea8fF5Gmc/Mbn/u+bpjQBT2Rnna2WWcpk1N3iqvh5Rvq3ljUTZBMw8wbPpxfKdl4yfAGJ6Hf/hZ/F1rhuo1XUf0Vd0uEvEJ0Om6oXbFEdZYO2z3PWq2WRhn5cItwGmYRvi/XMiEt7P5dE01Ow5f4khWAyezSlTtUOqGps5Qi7ClU8X5mnSZmOnwjS15+coF51SGjBPNIyMjj3wTDJvlIpVh3CYYms41Ak6/DkCUXuAuR5dq66zpgK9yrvHXzSW8EJXP+FXlChRDousIFQY6ppaQGJ06S4QYYNQWQ4SAiaoh9NPzPP7idzw8OoU/+MapSNAEQiWtMSU216fQvwggxtLPW4AvWoOfZzz9PE0wjMZNUmMDED0EeL1i8fD8ksHDvmDWnG/Y8nU5l66CdHc5DHsokfL0dsQ8gDqi3tAGqamA0OjtlkBEAFtYVBkVfK6ZdWtzee2NLYRNiFemBiJpkTRWyA/d1WKAyW1ZXVeQu5PH9wIQTVB0/iwVIY7driJE8UAUY1gRhQeErOWpP27l3Xn72LO7jouVmvwSbel9A8Sbb2jNgukuFsORRPzpGmDzD9W89tFRgl87jN/0LJU++0wvxDeiGL+Ic/iHF6h0WlJqAUqpI/qFn8VXfBFVGmyIq0U6c9uVh8huvGQMQbgw22fwmZ7N6NcLeX1JMRv3X+NQ+kVOZpeTll2kfA5/zLzBBEMBTifpIrVGo54oPokZZ0jPyiMnVybo1dLS3EaPw6EMNLWNlwCgLDNS+7UAoti9dyiPy84eUKCY2aBA8VlLKaGrLiqwC45uIDimniBLnSJXBBDNJQx0SGwDkyLrGP2X0/Sfsp3fPhGPm1+81hgaACigKOmzCZK96fM9B8R43Lwt9PNeRT9VF4zCzSsGNy8BQnks6XEMbp5xuHvGKTDs7xnN4CFLmTZrAzv2VFPXqByqsFo7sFlb6RK3pwcYHcp1YzZFaGdt0+hCjlKuasUutltddkX+VFba2by1kFdeW8ukp5MIHidjB9YrwmNEmMhjRDMoHohOy6+7TZud73eC2O3Jj9tFiAKIul7pGjEGjt2maoijgrcyMmgbIwM38OSUTSxYcIzv9lyi2YjoHV2iTZWhbfcpQtSbW29yp9BRNrsGRWmQx3YFxHZJpmVd7mFvejtvf55L2OxU1UPsM13S5HMGIBYaoHi2FxgFEDUoCsGiI0QZeXp7QDS+Hn4Gz2lC4uQwLCKN5947z5ebmthz4ionM89zKvMcJ9MNS64fccEWQFRu18rXUIOiEyTFJzGHtMxczuSfo6b2Eq0t7dhtdlUzFFZLG4qaQGgefx2AqABaLK6kj1ciReDiNfgmv50F26t4znKeCZFlhK6qUamzAGKApbaXdRbmWeqIQbF1qpY4cWklPm8c5uGxG/i9fxzuRs1QwO9mgKjIll8IEN28o3DzXoUc3b1i9PKMwd1YHp4WPDyjcH/8C4aMjGbm7J3sPXiF6ksyPwUVOdvtLdhtGnDuNuVy3gzNa+DOjrcDRJnF0qUixVbo6URmuss8lN17K5n/3m7GP5nIsNHRjAxJMUBR9IJ6iR7QCWZ3Egne6nvvFhA3Ky2lmDz0/l2Gm49EhCODNjA8YA3DxyQxccpG/vl5LiePd9HcpN3GxHNRhnRpjuO+AaKcTA2INx6F4TTslFQjvp02q0MRLT9kdLI4/jzPzjvJkPCj+EZk4zdD6oaF+EwvwDe8oLcHua/0xmSjTTPZHzmKWHt6Hr7TMpj4djZ/iaxk66EODqXVk5pRSKoaHKWNW3sjPTPiU0eDbc6QlFgzxiYo6qO4aEtkmEN27lmKS8qorWugva2DLpt0ocgSmt81TXbdAL8iQDRYaOUI7bDTYXdQ2gR7i6z8Y3cVMxOLmRRZRtiqKsU6B8TWEyCRosxVURFjnQLEMEs9E6PrGbPoHJ6vHOR3o9fwe9Em+sRr6YyvdKQ41wAFhInqa/194rlh/awaYqKuIfrE4eYjjHEM7t6xuHvF4yFp82MxeAyKpf+gGNwfW8mAwV8QNM7C/L/+wHc/NFDfiB6lKfUnu9zUxM1bNpdTYXG3wPZz398XEPvOYHGoMpWOFpUzkKMbKV3XNfSw/2AVn31+iOemJjImxMLI4LWMkgHzhkv2rwMQBUTNiFHS4evGIoQIOSQ90+sZEZhE6ITVzJi1nZjYs6SntdPYoLs3xX5RmWAY50wi5/tSQ+x7Ul03tyYKtJuxAKORRnc1K0bzSiuczG1l+cYqXvowj9GzTzPkZXHELsR7eiE+4efwmlagwEy0hyLLEdLF32CjlZRGkSpCrNxqyc+TVDmPYREZvLakiOjt9ezPaOFERqWq8wkbfNP01wUUzU4TDYh5pGbIOkOapMfieJ2dR25eAWUXKpT/W0dHu6qddtulC0VrnpyO165gaN5MHjypIudRSXGUXlFIA93rK9b8da3dHCpqYen39cxKqWVSdAXB0dWMsjQQYGkgyCLtfnKsI1CE27HS8neJkKhaRn9QwONTv+eh0Wt5SCQyXnE86qMJE5HWCHkyUPSF8pqA4XXgd7PnP4VUcZItQr5I6iykSSLuXkl4eCbh9mg8/R+LZ+CgGDx9o5k4eR0fLznGD4fquNKk9Wo93Z1qsp4+j3Iu5fmvDRB1c4RJrkh7Ypddj3RVKbWjjW5xCOqBxitdpKdXEx1zildf38mkp7YRELaBkQIwqgVPgGiT7nDpJVjuJmq80wjR5fuN2qDUB3uXMV1QwFBGjz79/A7mLdjPuo1FFBXZVJoskijlb2m4zAvRK+fsAQLijdGi1sGJ3ENvNLmwJJTv7ILielh3oJ03PstlwpzjjHzlBMMi0rUMZ7qkyn3F2f4yq9nQLIpu8ceWz/QsfKelM/Z/MlicVM3Xx65yNPsSJzNLSTcIEJ32mrXAvoJrAcNjaTIIyiRN8khNP0Nqeg4ZmbmcPp1HQUER1RdraL52DbtVzBqsOJSduvRKijGpK+Dd+Pn0jayvB8z7/VzMEAxAlF5fe7uKFMUu7FQVxBxtZvaaEp6KKiQs+gJhlouEChhG1xMYbUSLBiCOjbvMxJX1hH14nsdf+J4/CChKxCbaQkNaYwKiAsmfDIgixflxplmDov4+YZxNQOzvlchAz1geHRyJ/7CVPP1sCiujzpCT56BND5TE0dVl1OrkfGk3bm1Ce+/Me/sGEz/9PPclVUxyRbPNvYCoLMxkbEQbIC5KnYh9mnTY1NTA1m3n+ct7+/jj8ykEjUsgYFwKY8JkRsnG3uWs2d0qJf6x110ArjfqM6O/mx3l+yU9NiRCMhlPgFG9V37XekaHpRA8YTXPvbSeJf9M5eCRK1wTfw6JCGVIlE1GE4jqxdm/b0aG5vFuSx63ZZlvPKnXb3h9ontB0WgZk8jJbnPQaoPaNjhRBJHbLqpxAAEv7+OJaScYFp7HUBFSG6SK6lwRosXoXhFxt1q94m1TxK2PEln6h6cxatYp/mdpGcnfXeFQVj3Hs8pV7TAtUwZH6eFRQqhoUuV64bVu45Po8GRGHqcyRGN4RoHh2fxCKssruXa1CVuHCJw76JYRlCL2VH58MmRHDEi1FZUzSrz+MzKf//RNcePnfvfv1XdTveGdoCgF+k46bd1cscG5Rtie285ft5fxUkIRk6JKCFlVReCqWrWCouoIjqlTIBlmaWBiTCOTIxsZ+0k5ni/t5w8jU/hvrxgeUdpCHRkKGN45IGpQFGBUukTvRNwF9Lydz+V1Z6Qo+sXVeHgnM8Arlv6PL2VUYCxz/ryHr76toaYeOqxqsJ2qoaqWSjVX2Dw3+qYmn5G+gd395/1zz6He0C61MUN6oyJCM2UWQBS1h2FuIWl2jxqYZVeO201XISenleS1+cyes4OwSbGMCo5Xo01HBotER+a1CAHjUr+7Yyb6TgFRQE+3A44K3qJHhaoUWf6eNYwKTWDSs+t5Z+E+dn5bQ1FpD82txlhUm63XuUbOj3xG2ivTWTt8QIB48wulNx1TPnUSLWp/vq6udjq7bFxq7SavEr460c4/kmt4+e9FjH3jLE+IPlGBoBEtKubZ0CiG5+GrIkjpPtHAaRIw6hhxhpGz0nh6fibLtl3lq+ONHMs6z8ks8SQUgsQERH3Urth9W/Pk+6S2eDw9V4FhRnYBZ/KLuXChikv1l2hrbladHuoqUzN6dXlAu1NfA2uzdms2ZvU6NYeuUePNP7Ofu2F+zvvkApIaWZf4AapNb0b04hqjW/9k3GSHtZuyJvihDFYcb2XOtjqejqsieGUlQSurCI6sVqlySHQtItMJs1xmfGwTT0Y1EfZhKUNfPka/oI38wV+nshIh9gKiEl7fmDaLHEZJYm6WTotO0SeR/iLWVmAoukXzuQi4dYSogNOIQL2GWXjp5W9ZtvIcB482U90AVuli6O5R5rO93oq9SgDz/AgYynl7sKBoRj+6runUImpA7DvoXmbQiEzIYW0Cu/g/yhL3bwetrQ7KLtg4cOgyK6Pz+dOfD/HU87sYEyb1uTVqjQwWE9jrQdEEup9yNCNBU5x9q6MZHcrv28Bo6axRafN6Aset5fmIXcz74BSWNVUcTbNSWYsaW+uQMajdUja4Qo8a/aDPjZQQuoR1VzeLvqB4nyNE8+JxPUr90OiQ6AVEScvk5LWp4UrC5rU5oLYZMktg/d6rfBxTyqwPc5jyTgYBs07xRMQphkxPV3IdGUsqchoxe5V2PN8ZhfjO0Ey1EDMaGHOYMCeDd5cXsflwK/syGjiSWcgxATnVryygqEkRqQnKEtmMAKNaGbkKNNOz88g4nc+Zs8WUlFZQXV3HtaZrWDvkTmSlxxhgrjeLAYgmmaRmeAigmJvoZkfXz+rBPXaNEAVU+7b4SaQoI1IdtHVDrR3S62FTbgdL9tbx5rpSXowtYkpkCeNXikynkiABxZgGQi1XmRjbzJRVVxi3+ALDZp9iwOSdPDI6hYf843nYWzpMNJB5eCUqcbSHkB8ChKpTJUF9XR5LTVFedxe9oLd0sEjtUSI/qQ9qYbXqaBEgFI2hZxQeXpHKcHZ4cDxTXtjEnHl72bilgrMFPTS36JlIMj3Ooeq9Yl7iOobS9Xy4njvX1+//YxMU9eZ2Gq6YhEvvpleAKE0Bemi8MoSQc6t6ELVJqkhUCgrtfLO7muWR2cydt4cXpom/YgJBY+MZE5LIqGBxz9HjTp2khwl2xlGBmACb+bqAn6vtl7b+GqV0g+KlaNYHZXD8JkYGpTAyaDWjQ1YTOmEtTz27lRmzdjJ/4T7iEgvYf7iJEhmB2okyJZEZZMotSkDPLiMfxCVd37DUDV69Lp+Ns+5rPv45QYP5njtMma+/ODQYahmOBkX9g83X9ZzbHrHB6hZrJrD1wNUOyC/vYcfhJhYnlDLj/UwmvnWSgFdOKfmMd3gmgyJyGKS8DcWZuwjfGcX4zijBL6II3/CzDJ2RS8Tf80j4+jLfp0m6XMnhrDyOZOYiwmshU4QplhQ4NT1X1wYlJc7MU1rC9Mxcsk7nkVdQRNH5MmpqG2huacVus9GlCux6jrBuwzPrFvrD1zcA+T9e/3n8up/LBXP93yzRvXpNdIpdnUqGYu2Gth6o7oT0um7WZzbyya4KXk86zzNRxUyMqVDsc6CqLV4mKOoyY2Ou8GRsE89ENRK4MI/HxT8xIIXf+Fh4xCcBNyE9PFfjPli6ReIU4EnUp1JhSY1VeiyAGKf0gx7eYvqgI0TdYRKPu6cRTUqt0nMVHt7L8RwWScC4ON58ZzfxKUWczrNzTeYKS8O9Q7fjOTr02EzzOr3+M/j3f27uN/OalJu5SMHsOGw9KsFpb4OqKjh6rJ6o6FPMm/8VL4WvZeIU0S8mEzh2vfIslO4Wqe25LonmVGugAkVhhjUYjgndzpjQHYw21qiQ7Uo3ODxgCyODTX/E7SoiHBWcQmBoEhMnpzBj5k7e//sx1qQUkZ7eSmOjNrYWENT1wm56uiQYkX0njSDGQLHeCN4Jgvf63N1TQLzVH6cbrOXOJUp7q/Ksa7fD5XYovQwHc2H1t+18EFXFi+9lE/LWSYbMPIZP+DG8p53Ec+opvF9Mw2+ajCjNwPuFY0yYm8eHcRXsTW3laHY1R7KKOZJ1mmNZORzPyOWE6A/Tz5CWnktaeo46ZmYJY3yOc8WlXCivoqaunitNTVxraUbYY5tNbOuFbdTslRzV3VqNAHDKMm71//x3ft1sgpf/b5dVbgwdtNkdXLbBhXZIq4MtZ3r49PsrvLq2nMmWEsZGlhAaWUHQikqCI6sIja7hSUsDT6+qY/JnFwiYm8Gjk3fy22GJ/MYrloc8JcWV2l8c7t7SRWIxjBYkIpRIMpb+xhogLjjyWMlponH3WkW/wct56PHPeWTwZwwa9iVjn07i7QUHSFpfQXpONzWXoEXMTaQA77CqvuReJYRM6DPB///bURxgunoU6dLWCpcaoLCwm30/NBITW8D8hQeYNmM7E6asIyB0NcMD4hkekMiIgNVK/jJS9UtLz7SsNQi4iVGtjvrWMiIwhRGiGQxIZviY1QwdFc/IoCQCwlIImbCeJ5/Zwiuv7+aDj0+xek05h4/YKC6Gy5ehQ5IVOVU2kdTY1JhZKVuY16OcMz0RVM7fL1/SuEtAlD/SvDvd/ILThIuZoumaldbC2bA7UP6Kl1rgQh2cLoK9qVbWfH+Nf26oZUHkeV5flMcL89N56u2TTHzzOGNf20/Ya3uZu+wcyXvqOZZzmRPZJRxX4wCySD2dQ2ZOPqdzz5GXX8y5wlI1GrG0rIKqqhrqGy5x5epVWlpbaO9oo9PajtXWroaYK+MKoydS6jO97jTKpcaMDvX/szey+o/bXJo5l8HeNptV1YBbxFdRgLEZUqtha34HSw83sGBnJa+uucDUuDImRRYTtqKEcZFlTIgs58lVlUxZWs74j84xZk46PlP34hGyid/5W/id5woeGvQlDw9artYjg1ciq9/gFfQbvBI3z0jcBkfi5rkCN88vcfP8F48O+RdDgpYT9kw8M/60k4+WprJuexknM5qpqIbmNl0rlGtKspEeYV6FAJPNpUaX3vz6/P8BkgIkIi0S53GdSkvEeOkSlJV1k5Xdxp691SSnFPCvZam8/9Fh3l1wgDf+9A3TZmzk2alrmPzHRCZMjmXsRAthEyyMnRDH2IlxjJsos5ZjmDglgWenrmXGrK3MnvMNf/nbARb/M41ISyHrNley72AjWbltlJZD41VoF8GDnuwAjh6t6ZVZNqqG2/dcOQHRLGv0/fq9PIf3ABBv/cf1IVtUndGUfFwF+xVDDydUUqfm1e0y7wLlyp1XDkdzuth1pJ3krxuJ3lzH0jXVfJpQzKeJBaw/0MiJs62cvXCJ/JJSCs6f51xpCcVlOvqT1rqa6gYa6q5w+dIVVRdsa2vFqtxfpLdXamadCPGjJ7yJCFbGJWhjzt6o1qjTuH7ovf+v/zgwlBuXXKkyi6JTsehqtKfUTNXkQAetXVDZ1kN6bSe7CjtISG3ns/2t/HnnZV7ZUM/UtTVMXl3JhMRKpiTU8kzCZZ6NqmfiJ0WMnH2MQVO24jV2LUND1zAkOBnfMYl4jYxn8PBYBj1hwXNEPH6jkxkWuI4x4zYw7pltPDVtGzPf/ob3Pj3EyuRcdhyoIa2wkyqJMMQdGfnXTTc2HDJOVI0VlbqoXJuyiczI4tbXquv5/c98rMHEIZGy3CwcVnrEGUF6o7ug5RpcrJLBVk2cSr3K/kNX2LmrkqSUfGJis1i24hSffX6MRUsO8/GiQyxafJTFnx5j8adH1WtfLDtJTNxp1m08x649lRw8Wk96divnzsPFerjWBp2OHuxSOuvpUWy/9i5sB4dEhHJuzPqumfrr83U/Rzn8ooAoF5beYC4RomKghRUTUDQmo9ma6LHqObpilCB3eWkvkyW9t2KFf6kNaq5BxRUob4SqJnFvgattVq42X6OlvZW2jjZa29vUcCdrpxVbp01ZsHdJKC62XGpTWw0QFCCUAfImhS/N8yYYaj9BxcDeEhClZmpGx31P4L/3hpKLUyrbHWA1Zh0rBxi5WPUAKyFergL13XDBBlmX4bsyWJfbTeTJVj76vo6520t5c30Jb6aUMXf9ReatrebtmBJeX5LKO0tOsnDRMeZ9cJC33v2WmW9tZ/qrG3lp5noiXtvM7Le/5d2FB1j0z3Tiks+z+atqTmR1UFoNjR3QDrTLQDUZ59ztUHrKbvGf7NaTDc3eVic58ctHFr/2cy43eDVrR6Q64ppjb6HL1mZMGJRBXrrmqsbBysNu6LSiiCkRs0uL4MVquFAOpWVw4QKUV0BFJVRWQV29iMNRUhlxanf0KKwVvFWuanbRSXZbsXV1GGoHiQYl65K9I9eWucw99WBuXv8Lr7AICqEKDn8AAAAASUVORK5CYII=;" parent="1" vertex="1">
                    <mxGeometry x="391.25" y="359.44" width="110" height="30.56" as="geometry"/>
                </mxCell>
            </root>
        </mxGraphModel>
    </diagram>
</mxfile>